<?xml version="1.0" encoding="UTF-8" standalone="no"?>
<!-- Created with Inkscape (http://www.inkscape.org/) -->

<svg
   xmlns:dc="http://purl.org/dc/elements/1.1/"
   xmlns:cc="http://creativecommons.org/ns#"
   xmlns:rdf="http://www.w3.org/1999/02/22-rdf-syntax-ns#"
   xmlns:svg="http://www.w3.org/2000/svg"
   xmlns="http://www.w3.org/2000/svg"
   xmlns:sodipodi="http://sodipodi.sourceforge.net/DTD/sodipodi-0.dtd"
   xmlns:inkscape="http://www.inkscape.org/namespaces/inkscape"
   width="1062.9921"
   height="354.33069"
   id="svg3147"
   version="1.1"
   inkscape:version="0.48.4 r9939"
   sodipodi:docname="header.svg">
  <defs
     id="defs3" />
  <sodipodi:namedview
     inkscape:document-units="mm"
     id="base"
     pagecolor="#ffffff"
     bordercolor="#666666"
     borderopacity="1.0"
     inkscape:pageopacity="0.0"
     inkscape:pageshadow="2"
     inkscape:zoom="2.3043129"
     inkscape:cx="631.86559"
     inkscape:cy="90.74623"
     inkscape:current-layer="layer1"
     showgrid="false"
     units="mm"
     inkscape:window-width="1278"
     inkscape:window-height="952"
     inkscape:window-x="0"
     inkscape:window-y="24"
     inkscape:window-maximized="0" />
  <metadata
     id="metadata4">
    <rdf:RDF>
      <cc:Work
         rdf:about="">
        <dc:format>image/svg+xml</dc:format>
        <dc:type
           rdf:resource="http://purl.org/dc/dcmitype/StillImage" />
        <dc:title></dc:title>
      </cc:Work>
    </rdf:RDF>
  </metadata>
  <g
     inkscape:label="Layer 1"
     inkscape:groupmode="layer"
     id="layer1"
     transform="translate(0,-698.03147)">
    <path
       sodipodi:type="spiral"
       style="fill:none;stroke:#000000;stroke-width:1px;stroke-linecap:butt;stroke-linejoin:miter;stroke-opacity:1"
       id="path3172"
       sodipodi:cx="185.34483"
       sodipodi:cy="191.39966"
       sodipodi:expansion="2.3099999"
       sodipodi:revolution="2.29"
       sodipodi:radius="89.177277"
       sodipodi:argument="-67.172791"
       sodipodi:t0="0"
       d="m 185.34483,191.39966 c -0.0797,0.20451 -0.46006,-0.13834 -0.49842,-0.19415 -0.67471,-0.98164 0.63337,-2.05495 1.4612,-2.27745 2.93383,-0.78855 5.12804,2.38292 5.34315,4.92797 0.50753,6.00461 -5.7048,9.90279 -11.08015,9.79988 -10.3054,-0.19729 -16.55558,-10.81418 -15.74778,-20.25027 1.36416,-15.93501 17.87978,-25.23039 32.70275,-23.27602 22.97751,3.02952 36.05044,27.04279 32.46453,48.66089 -5.22611,31.50631 -38.42587,49.1244 -68.31986,43.38582 -41.5871,-7.98323 -64.550103,-52.13812 -56.10638,-91.85407 1.54262,-7.25588 4.02914,-14.30506 7.34576,-20.93921"
       transform="translate(0,698.03147)" />
    <path
       transform="matrix(1,0,0,-1,0.04392801,1052.1221)"
       sodipodi:type="spiral"
       style="fill:none;stroke:#000000;stroke-width:1px;stroke-linecap:butt;stroke-linejoin:miter;stroke-opacity:1"
       id="path3172-7"
       sodipodi:cx="185.34483"
       sodipodi:cy="191.39966"
       sodipodi:expansion="2.3099999"
       sodipodi:revolution="2.29"
       sodipodi:radius="89.177277"
       sodipodi:argument="-67.172791"
       sodipodi:t0="0"
       d="m 185.34483,191.39966 c -0.0797,0.20451 -0.46006,-0.13834 -0.49842,-0.19415 -0.67471,-0.98164 0.63337,-2.05495 1.4612,-2.27745 2.93383,-0.78855 5.12804,2.38292 5.34315,4.92797 0.50753,6.00461 -5.7048,9.90279 -11.08015,9.79988 -10.3054,-0.19729 -16.55558,-10.81418 -15.74778,-20.25027 1.36416,-15.93501 17.87978,-25.23039 32.70275,-23.27602 22.97751,3.02952 36.05044,27.04279 32.46453,48.66089 -5.22611,31.50631 -38.42587,49.1244 -68.31986,43.38582 -41.5871,-7.98323 -64.550103,-52.13812 -56.10638,-91.85407 1.54262,-7.25588 4.02914,-14.30506 7.34576,-20.93921" />
    <path
       transform="matrix(-1,0,0,-1,447.87698,1052.9622)"
       sodipodi:type="spiral"
       style="fill:none;stroke:#000000;stroke-width:1px;stroke-linecap:butt;stroke-linejoin:miter;stroke-opacity:1"
       id="path3172-4"
       sodipodi:cx="185.34483"
       sodipodi:cy="191.39966"
       sodipodi:expansion="2.3099999"
       sodipodi:revolution="2.29"
       sodipodi:radius="89.177277"
       sodipodi:argument="-67.172791"
       sodipodi:t0="0"
       d="m 185.34483,191.39966 c -0.0797,0.20451 -0.46006,-0.13834 -0.49842,-0.19415 -0.67471,-0.98164 0.63337,-2.05495 1.4612,-2.27745 2.93383,-0.78855 5.12804,2.38292 5.34315,4.92797 0.50753,6.00461 -5.7048,9.90279 -11.08015,9.79988 -10.3054,-0.19729 -16.55558,-10.81418 -15.74778,-20.25027 1.36416,-15.93501 17.87978,-25.23039 32.70275,-23.27602 22.97751,3.02952 36.05044,27.04279 32.46453,48.66089 -5.22611,31.50631 -38.42587,49.1244 -68.31986,43.38582 -41.5871,-7.98323 -64.550103,-52.13812 -56.10638,-91.85407 1.54262,-7.25588 4.02914,-14.30506 7.34576,-20.93921" />
    <path
       transform="matrix(-1,0,0,1,447.83305,698.8715)"
       sodipodi:type="spiral"
       style="fill:none;stroke:#000000;stroke-width:1px;stroke-linecap:butt;stroke-linejoin:miter;stroke-opacity:1"
       id="path3172-7-8"
       sodipodi:cx="185.34483"
       sodipodi:cy="191.39966"
       sodipodi:expansion="2.3099999"
       sodipodi:revolution="2.29"
       sodipodi:radius="89.177277"
       sodipodi:argument="-67.172791"
       sodipodi:t0="0"
       d="m 185.34483,191.39966 c -0.0797,0.20451 -0.46006,-0.13834 -0.49842,-0.19415 -0.67471,-0.98164 0.63337,-2.05495 1.4612,-2.27745 2.93383,-0.78855 5.12804,2.38292 5.34315,4.92797 0.50753,6.00461 -5.7048,9.90279 -11.08015,9.79988 -10.3054,-0.19729 -16.55558,-10.81418 -15.74778,-20.25027 1.36416,-15.93501 17.87978,-25.23039 32.70275,-23.27602 22.97751,3.02952 36.05044,27.04279 32.46453,48.66089 -5.22611,31.50631 -38.42587,49.1244 -68.31986,43.38582 -41.5871,-7.98323 -64.550103,-52.13812 -56.10638,-91.85407 1.54262,-7.25588 4.02914,-14.30506 7.34576,-20.93921" />
    <path
       transform="translate(118.46292,698.70548)"
       sodipodi:type="spiral"
       style="fill:none;stroke:#000000;stroke-width:1px;stroke-linecap:butt;stroke-linejoin:miter;stroke-opacity:1"
       id="path3172-3"
       sodipodi:cx="185.34483"
       sodipodi:cy="191.39966"
       sodipodi:expansion="2.3099999"
       sodipodi:revolution="2.29"
       sodipodi:radius="89.177277"
       sodipodi:argument="-67.172791"
       sodipodi:t0="0"
       d="m 185.34483,191.39966 c -0.0797,0.20451 -0.46006,-0.13834 -0.49842,-0.19415 -0.67471,-0.98164 0.63337,-2.05495 1.4612,-2.27745 2.93383,-0.78855 5.12804,2.38292 5.34315,4.92797 0.50753,6.00461 -5.7048,9.90279 -11.08015,9.79988 -10.3054,-0.19729 -16.55558,-10.81418 -15.74778,-20.25027 1.36416,-15.93501 17.87978,-25.23039 32.70275,-23.27602 22.97751,3.02952 36.05044,27.04279 32.46453,48.66089 -5.22611,31.50631 -38.42587,49.1244 -68.31986,43.38582 -41.5871,-7.98323 -64.550103,-52.13812 -56.10638,-91.85407 1.54262,-7.25588 4.02914,-14.30506 7.34576,-20.93921" />
    <path
       transform="matrix(1,0,0,-1,118.50685,1052.7961)"
       sodipodi:type="spiral"
       style="fill:none;stroke:#000000;stroke-width:1px;stroke-linecap:butt;stroke-linejoin:miter;stroke-opacity:1"
       id="path3172-7-9"
       sodipodi:cx="185.34483"
       sodipodi:cy="191.39966"
       sodipodi:expansion="2.3099999"
       sodipodi:revolution="2.29"
       sodipodi:radius="89.177277"
       sodipodi:argument="-67.172791"
       sodipodi:t0="0"
       d="m 185.34483,191.39966 c -0.0797,0.20451 -0.46006,-0.13834 -0.49842,-0.19415 -0.67471,-0.98164 0.63337,-2.05495 1.4612,-2.27745 2.93383,-0.78855 5.12804,2.38292 5.34315,4.92797 0.50753,6.00461 -5.7048,9.90279 -11.08015,9.79988 -10.3054,-0.19729 -16.55558,-10.81418 -15.74778,-20.25027 1.36416,-15.93501 17.87978,-25.23039 32.70275,-23.27602 22.97751,3.02952 36.05044,27.04279 32.46453,48.66089 -5.22611,31.50631 -38.42587,49.1244 -68.31986,43.38582 -41.5871,-7.98323 -64.550103,-52.13812 -56.10638,-91.85407 1.54262,-7.25588 4.02914,-14.30506 7.34576,-20.93921" />
    <path
       transform="matrix(-1,0,0,-1,566.3399,1053.6362)"
       sodipodi:type="spiral"
       style="fill:none;stroke:#000000;stroke-width:1px;stroke-linecap:butt;stroke-linejoin:miter;stroke-opacity:1"
       id="path3172-4-1"
       sodipodi:cx="185.34483"
       sodipodi:cy="191.39966"
       sodipodi:expansion="2.3099999"
       sodipodi:revolution="2.29"
       sodipodi:radius="89.177277"
       sodipodi:argument="-67.172791"
       sodipodi:t0="0"
       d="m 185.34483,191.39966 c -0.0797,0.20451 -0.46006,-0.13834 -0.49842,-0.19415 -0.67471,-0.98164 0.63337,-2.05495 1.4612,-2.27745 2.93383,-0.78855 5.12804,2.38292 5.34315,4.92797 0.50753,6.00461 -5.7048,9.90279 -11.08015,9.79988 -10.3054,-0.19729 -16.55558,-10.81418 -15.74778,-20.25027 1.36416,-15.93501 17.87978,-25.23039 32.70275,-23.27602 22.97751,3.02952 36.05044,27.04279 32.46453,48.66089 -5.22611,31.50631 -38.42587,49.1244 -68.31986,43.38582 -41.5871,-7.98323 -64.550103,-52.13812 -56.10638,-91.85407 1.54262,-7.25588 4.02914,-14.30506 7.34576,-20.93921" />
    <path
       transform="matrix(-1,0,0,1,566.29597,699.54551)"
       sodipodi:type="spiral"
       style="fill:none;stroke:#000000;stroke-width:1px;stroke-linecap:butt;stroke-linejoin:miter;stroke-opacity:1"
       id="path3172-7-8-9"
       sodipodi:cx="185.34483"
       sodipodi:cy="191.39966"
       sodipodi:expansion="2.3099999"
       sodipodi:revolution="2.29"
       sodipodi:radius="89.177277"
       sodipodi:argument="-67.172791"
       sodipodi:t0="0"
       d="m 185.34483,191.39966 c -0.0797,0.20451 -0.46006,-0.13834 -0.49842,-0.19415 -0.67471,-0.98164 0.63337,-2.05495 1.4612,-2.27745 2.93383,-0.78855 5.12804,2.38292 5.34315,4.92797 0.50753,6.00461 -5.7048,9.90279 -11.08015,9.79988 -10.3054,-0.19729 -16.55558,-10.81418 -15.74778,-20.25027 1.36416,-15.93501 17.87978,-25.23039 32.70275,-23.27602 22.97751,3.02952 36.05044,27.04279 32.46453,48.66089 -5.22611,31.50631 -38.42587,49.1244 -68.31986,43.38582 -41.5871,-7.98323 -64.550103,-52.13812 -56.10638,-91.85407 1.54262,-7.25588 4.02914,-14.30506 7.34576,-20.93921" />
    <path
       transform="translate(205.69066,699.57342)"
       sodipodi:type="spiral"
       style="fill:none;stroke:#000000;stroke-width:1px;stroke-linecap:butt;stroke-linejoin:miter;stroke-opacity:1"
       id="path3172-30"
       sodipodi:cx="185.34483"
       sodipodi:cy="191.39966"
       sodipodi:expansion="2.3099999"
       sodipodi:revolution="2.29"
       sodipodi:radius="89.177277"
       sodipodi:argument="-67.172791"
       sodipodi:t0="0"
       d="m 185.34483,191.39966 c -0.0797,0.20451 -0.46006,-0.13834 -0.49842,-0.19415 -0.67471,-0.98164 0.63337,-2.05495 1.4612,-2.27745 2.93383,-0.78855 5.12804,2.38292 5.34315,4.92797 0.50753,6.00461 -5.7048,9.90279 -11.08015,9.79988 -10.3054,-0.19729 -16.55558,-10.81418 -15.74778,-20.25027 1.36416,-15.93501 17.87978,-25.23039 32.70275,-23.27602 22.97751,3.02952 36.05044,27.04279 32.46453,48.66089 -5.22611,31.50631 -38.42587,49.1244 -68.31986,43.38582 -41.5871,-7.98323 -64.550103,-52.13812 -56.10638,-91.85407 1.54262,-7.25588 4.02914,-14.30506 7.34576,-20.93921" />
    <path
       transform="matrix(1,0,0,-1,205.73459,1053.664)"
       sodipodi:type="spiral"
       style="fill:none;stroke:#000000;stroke-width:1px;stroke-linecap:butt;stroke-linejoin:miter;stroke-opacity:1"
       id="path3172-7-80"
       sodipodi:cx="185.34483"
       sodipodi:cy="191.39966"
       sodipodi:expansion="2.3099999"
       sodipodi:revolution="2.29"
       sodipodi:radius="89.177277"
       sodipodi:argument="-67.172791"
       sodipodi:t0="0"
       d="m 185.34483,191.39966 c -0.0797,0.20451 -0.46006,-0.13834 -0.49842,-0.19415 -0.67471,-0.98164 0.63337,-2.05495 1.4612,-2.27745 2.93383,-0.78855 5.12804,2.38292 5.34315,4.92797 0.50753,6.00461 -5.7048,9.90279 -11.08015,9.79988 -10.3054,-0.19729 -16.55558,-10.81418 -15.74778,-20.25027 1.36416,-15.93501 17.87978,-25.23039 32.70275,-23.27602 22.97751,3.02952 36.05044,27.04279 32.46453,48.66089 -5.22611,31.50631 -38.42587,49.1244 -68.31986,43.38582 -41.5871,-7.98323 -64.550103,-52.13812 -56.10638,-91.85407 1.54262,-7.25588 4.02914,-14.30506 7.34576,-20.93921" />
    <path
       transform="matrix(-1,0,0,-1,653.56764,1054.5041)"
       sodipodi:type="spiral"
       style="fill:none;stroke:#000000;stroke-width:1px;stroke-linecap:butt;stroke-linejoin:miter;stroke-opacity:1"
       id="path3172-4-8"
       sodipodi:cx="185.34483"
       sodipodi:cy="191.39966"
       sodipodi:expansion="2.3099999"
       sodipodi:revolution="2.29"
       sodipodi:radius="89.177277"
       sodipodi:argument="-67.172791"
       sodipodi:t0="0"
       d="m 185.34483,191.39966 c -0.0797,0.20451 -0.46006,-0.13834 -0.49842,-0.19415 -0.67471,-0.98164 0.63337,-2.05495 1.4612,-2.27745 2.93383,-0.78855 5.12804,2.38292 5.34315,4.92797 0.50753,6.00461 -5.7048,9.90279 -11.08015,9.79988 -10.3054,-0.19729 -16.55558,-10.81418 -15.74778,-20.25027 1.36416,-15.93501 17.87978,-25.23039 32.70275,-23.27602 22.97751,3.02952 36.05044,27.04279 32.46453,48.66089 -5.22611,31.50631 -38.42587,49.1244 -68.31986,43.38582 -41.5871,-7.98323 -64.550103,-52.13812 -56.10638,-91.85407 1.54262,-7.25588 4.02914,-14.30506 7.34576,-20.93921" />
    <path
       transform="matrix(-1,0,0,1,653.52371,700.41345)"
       sodipodi:type="spiral"
       style="fill:none;stroke:#000000;stroke-width:1px;stroke-linecap:butt;stroke-linejoin:miter;stroke-opacity:1"
       id="path3172-7-8-2"
       sodipodi:cx="185.34483"
       sodipodi:cy="191.39966"
       sodipodi:expansion="2.3099999"
       sodipodi:revolution="2.29"
       sodipodi:radius="89.177277"
       sodipodi:argument="-67.172791"
       sodipodi:t0="0"
       d="m 185.34483,191.39966 c -0.0797,0.20451 -0.46006,-0.13834 -0.49842,-0.19415 -0.67471,-0.98164 0.63337,-2.05495 1.4612,-2.27745 2.93383,-0.78855 5.12804,2.38292 5.34315,4.92797 0.50753,6.00461 -5.7048,9.90279 -11.08015,9.79988 -10.3054,-0.19729 -16.55558,-10.81418 -15.74778,-20.25027 1.36416,-15.93501 17.87978,-25.23039 32.70275,-23.27602 22.97751,3.02952 36.05044,27.04279 32.46453,48.66089 -5.22611,31.50631 -38.42587,49.1244 -68.31986,43.38582 -41.5871,-7.98323 -64.550103,-52.13812 -56.10638,-91.85407 1.54262,-7.25588 4.02914,-14.30506 7.34576,-20.93921" />
    <path
       transform="matrix(0.5,0,0,0.5,381.01936,788.74005)"
       sodipodi:type="spiral"
       style="fill:none;stroke:#000000;stroke-width:1px;stroke-linecap:butt;stroke-linejoin:miter;stroke-opacity:1"
       id="path3172-9"
       sodipodi:cx="185.34483"
       sodipodi:cy="191.39966"
       sodipodi:expansion="2.3099999"
       sodipodi:revolution="2.29"
       sodipodi:radius="89.177277"
       sodipodi:argument="-67.172791"
       sodipodi:t0="0"
       d="m 185.34483,191.39966 c -0.0797,0.20451 -0.46006,-0.13834 -0.49842,-0.19415 -0.67471,-0.98164 0.63337,-2.05495 1.4612,-2.27745 2.93383,-0.78855 5.12804,2.38292 5.34315,4.92797 0.50753,6.00461 -5.7048,9.90279 -11.08015,9.79988 -10.3054,-0.19729 -16.55558,-10.81418 -15.74778,-20.25027 1.36416,-15.93501 17.87978,-25.23039 32.70275,-23.27602 22.97751,3.02952 36.05044,27.04279 32.46453,48.66089 -5.22611,31.50631 -38.42587,49.1244 -68.31986,43.38582 -41.5871,-7.98323 -64.550103,-52.13812 -56.10638,-91.85407 1.54262,-7.25588 4.02914,-14.30506 7.34576,-20.93921" />
    <path
       transform="matrix(0.5,0,0,-0.5,381.04132,965.78535)"
       sodipodi:type="spiral"
       style="fill:none;stroke:#000000;stroke-width:1px;stroke-linecap:butt;stroke-linejoin:miter;stroke-opacity:1"
       id="path3172-7-85"
       sodipodi:cx="185.34483"
       sodipodi:cy="191.39966"
       sodipodi:expansion="2.3099999"
       sodipodi:revolution="2.29"
       sodipodi:radius="89.177277"
       sodipodi:argument="-67.172791"
       sodipodi:t0="0"
       d="m 185.34483,191.39966 c -0.0797,0.20451 -0.46006,-0.13834 -0.49842,-0.19415 -0.67471,-0.98164 0.63337,-2.05495 1.4612,-2.27745 2.93383,-0.78855 5.12804,2.38292 5.34315,4.92797 0.50753,6.00461 -5.7048,9.90279 -11.08015,9.79988 -10.3054,-0.19729 -16.55558,-10.81418 -15.74778,-20.25027 1.36416,-15.93501 17.87978,-25.23039 32.70275,-23.27602 22.97751,3.02952 36.05044,27.04279 32.46453,48.66089 -5.22611,31.50631 -38.42587,49.1244 -68.31986,43.38582 -41.5871,-7.98323 -64.550103,-52.13812 -56.10638,-91.85407 1.54262,-7.25588 4.02914,-14.30506 7.34576,-20.93921" />
    <path
       transform="matrix(-0.5,0,0,-0.5,604.95785,966.2054)"
       sodipodi:type="spiral"
       style="fill:none;stroke:#000000;stroke-width:1px;stroke-linecap:butt;stroke-linejoin:miter;stroke-opacity:1"
       id="path3172-4-5"
       sodipodi:cx="185.34483"
       sodipodi:cy="191.39966"
       sodipodi:expansion="2.3099999"
       sodipodi:revolution="2.29"
       sodipodi:radius="89.177277"
       sodipodi:argument="-67.172791"
       sodipodi:t0="0"
       d="m 185.34483,191.39966 c -0.0797,0.20451 -0.46006,-0.13834 -0.49842,-0.19415 -0.67471,-0.98164 0.63337,-2.05495 1.4612,-2.27745 2.93383,-0.78855 5.12804,2.38292 5.34315,4.92797 0.50753,6.00461 -5.7048,9.90279 -11.08015,9.79988 -10.3054,-0.19729 -16.55558,-10.81418 -15.74778,-20.25027 1.36416,-15.93501 17.87978,-25.23039 32.70275,-23.27602 22.97751,3.02952 36.05044,27.04279 32.46453,48.66089 -5.22611,31.50631 -38.42587,49.1244 -68.31986,43.38582 -41.5871,-7.98323 -64.550103,-52.13812 -56.10638,-91.85407 1.54262,-7.25588 4.02914,-14.30506 7.34576,-20.93921" />
    <path
       transform="matrix(-0.5,0,0,0.5,604.93588,789.16006)"
       sodipodi:type="spiral"
       style="fill:none;stroke:#000000;stroke-width:1px;stroke-linecap:butt;stroke-linejoin:miter;stroke-opacity:1"
       id="path3172-7-8-1"
       sodipodi:cx="185.34483"
       sodipodi:cy="191.39966"
       sodipodi:expansion="2.3099999"
       sodipodi:revolution="2.29"
       sodipodi:radius="89.177277"
       sodipodi:argument="-67.172791"
       sodipodi:t0="0"
       d="m 185.34483,191.39966 c -0.0797,0.20451 -0.46006,-0.13834 -0.49842,-0.19415 -0.67471,-0.98164 0.63337,-2.05495 1.4612,-2.27745 2.93383,-0.78855 5.12804,2.38292 5.34315,4.92797 0.50753,6.00461 -5.7048,9.90279 -11.08015,9.79988 -10.3054,-0.19729 -16.55558,-10.81418 -15.74778,-20.25027 1.36416,-15.93501 17.87978,-25.23039 32.70275,-23.27602 22.97751,3.02952 36.05044,27.04279 32.46453,48.66089 -5.22611,31.50631 -38.42587,49.1244 -68.31986,43.38582 -41.5871,-7.98323 -64.550103,-52.13812 -56.10638,-91.85407 1.54262,-7.25588 4.02914,-14.30506 7.34576,-20.93921" />
    <path
       transform="translate(292.91839,700.00739)"
       sodipodi:type="spiral"
       style="fill:none;stroke:#000000;stroke-width:1px;stroke-linecap:butt;stroke-linejoin:miter;stroke-opacity:1"
       id="path3172-74"
       sodipodi:cx="185.34483"
       sodipodi:cy="191.39966"
       sodipodi:expansion="2.3099999"
       sodipodi:revolution="2.29"
       sodipodi:radius="89.177277"
       sodipodi:argument="-67.172791"
       sodipodi:t0="0"
       d="m 185.34483,191.39966 c -0.0797,0.20451 -0.46006,-0.13834 -0.49842,-0.19415 -0.67471,-0.98164 0.63337,-2.05495 1.4612,-2.27745 2.93383,-0.78855 5.12804,2.38292 5.34315,4.92797 0.50753,6.00461 -5.7048,9.90279 -11.08015,9.79988 -10.3054,-0.19729 -16.55558,-10.81418 -15.74778,-20.25027 1.36416,-15.93501 17.87978,-25.23039 32.70275,-23.27602 22.97751,3.02952 36.05044,27.04279 32.46453,48.66089 -5.22611,31.50631 -38.42587,49.1244 -68.31986,43.38582 -41.5871,-7.98323 -64.550103,-52.13812 -56.10638,-91.85407 1.54262,-7.25588 4.02914,-14.30506 7.34576,-20.93921" />
    <path
       transform="matrix(1,0,0,-1,292.96232,1054.0981)"
       sodipodi:type="spiral"
       style="fill:none;stroke:#000000;stroke-width:1px;stroke-linecap:butt;stroke-linejoin:miter;stroke-opacity:1"
       id="path3172-7-7"
       sodipodi:cx="185.34483"
       sodipodi:cy="191.39966"
       sodipodi:expansion="2.3099999"
       sodipodi:revolution="2.29"
       sodipodi:radius="89.177277"
       sodipodi:argument="-67.172791"
       sodipodi:t0="0"
       d="m 185.34483,191.39966 c -0.0797,0.20451 -0.46006,-0.13834 -0.49842,-0.19415 -0.67471,-0.98164 0.63337,-2.05495 1.4612,-2.27745 2.93383,-0.78855 5.12804,2.38292 5.34315,4.92797 0.50753,6.00461 -5.7048,9.90279 -11.08015,9.79988 -10.3054,-0.19729 -16.55558,-10.81418 -15.74778,-20.25027 1.36416,-15.93501 17.87978,-25.23039 32.70275,-23.27602 22.97751,3.02952 36.05044,27.04279 32.46453,48.66089 -5.22611,31.50631 -38.42587,49.1244 -68.31986,43.38582 -41.5871,-7.98323 -64.550103,-52.13812 -56.10638,-91.85407 1.54262,-7.25588 4.02914,-14.30506 7.34576,-20.93921" />
    <path
       transform="matrix(-1,0,0,-1,740.79537,1054.9382)"
       sodipodi:type="spiral"
       style="fill:none;stroke:#000000;stroke-width:1px;stroke-linecap:butt;stroke-linejoin:miter;stroke-opacity:1"
       id="path3172-4-18"
       sodipodi:cx="185.34483"
       sodipodi:cy="191.39966"
       sodipodi:expansion="2.3099999"
       sodipodi:revolution="2.29"
       sodipodi:radius="89.177277"
       sodipodi:argument="-67.172791"
       sodipodi:t0="0"
       d="m 185.34483,191.39966 c -0.0797,0.20451 -0.46006,-0.13834 -0.49842,-0.19415 -0.67471,-0.98164 0.63337,-2.05495 1.4612,-2.27745 2.93383,-0.78855 5.12804,2.38292 5.34315,4.92797 0.50753,6.00461 -5.7048,9.90279 -11.08015,9.79988 -10.3054,-0.19729 -16.55558,-10.81418 -15.74778,-20.25027 1.36416,-15.93501 17.87978,-25.23039 32.70275,-23.27602 22.97751,3.02952 36.05044,27.04279 32.46453,48.66089 -5.22611,31.50631 -38.42587,49.1244 -68.31986,43.38582 -41.5871,-7.98323 -64.550103,-52.13812 -56.10638,-91.85407 1.54262,-7.25588 4.02914,-14.30506 7.34576,-20.93921" />
    <path
       transform="matrix(-1,0,0,1,740.75144,700.84742)"
       sodipodi:type="spiral"
       style="fill:none;stroke:#000000;stroke-width:1px;stroke-linecap:butt;stroke-linejoin:miter;stroke-opacity:1"
       id="path3172-7-8-22"
       sodipodi:cx="185.34483"
       sodipodi:cy="191.39966"
       sodipodi:expansion="2.3099999"
       sodipodi:revolution="2.29"
       sodipodi:radius="89.177277"
       sodipodi:argument="-67.172791"
       sodipodi:t0="0"
       d="m 185.34483,191.39966 c -0.0797,0.20451 -0.46006,-0.13834 -0.49842,-0.19415 -0.67471,-0.98164 0.63337,-2.05495 1.4612,-2.27745 2.93383,-0.78855 5.12804,2.38292 5.34315,4.92797 0.50753,6.00461 -5.7048,9.90279 -11.08015,9.79988 -10.3054,-0.19729 -16.55558,-10.81418 -15.74778,-20.25027 1.36416,-15.93501 17.87978,-25.23039 32.70275,-23.27602 22.97751,3.02952 36.05044,27.04279 32.46453,48.66089 -5.22611,31.50631 -38.42587,49.1244 -68.31986,43.38582 -41.5871,-7.98323 -64.550103,-52.13812 -56.10638,-91.85407 1.54262,-7.25588 4.02914,-14.30506 7.34576,-20.93921" />
    <path
       transform="translate(-72.917336,696.96961)"
       sodipodi:type="spiral"
       style="fill:none;stroke:#000000;stroke-width:1px;stroke-linecap:butt;stroke-linejoin:miter;stroke-opacity:1"
       id="path3172-46"
       sodipodi:cx="185.34483"
       sodipodi:cy="191.39966"
       sodipodi:expansion="2.3099999"
       sodipodi:revolution="2.29"
       sodipodi:radius="89.177277"
       sodipodi:argument="-67.172791"
       sodipodi:t0="0"
       d="m 185.34483,191.39966 c -0.0797,0.20451 -0.46006,-0.13834 -0.49842,-0.19415 -0.67471,-0.98164 0.63337,-2.05495 1.4612,-2.27745 2.93383,-0.78855 5.12804,2.38292 5.34315,4.92797 0.50753,6.00461 -5.7048,9.90279 -11.08015,9.79988 -10.3054,-0.19729 -16.55558,-10.81418 -15.74778,-20.25027 1.36416,-15.93501 17.87978,-25.23039 32.70275,-23.27602 22.97751,3.02952 36.05044,27.04279 32.46453,48.66089 -5.22611,31.50631 -38.42587,49.1244 -68.31986,43.38582 -41.5871,-7.98323 -64.550103,-52.13812 -56.10638,-91.85407 1.54262,-7.25588 4.02914,-14.30506 7.34576,-20.93921" />
    <path
       transform="matrix(1,0,0,-1,-72.873406,1051.0602)"
       sodipodi:type="spiral"
       style="fill:none;stroke:#000000;stroke-width:1px;stroke-linecap:butt;stroke-linejoin:miter;stroke-opacity:1"
       id="path3172-7-1"
       sodipodi:cx="185.34483"
       sodipodi:cy="191.39966"
       sodipodi:expansion="2.3099999"
       sodipodi:revolution="2.29"
       sodipodi:radius="89.177277"
       sodipodi:argument="-67.172791"
       sodipodi:t0="0"
       d="m 185.34483,191.39966 c -0.0797,0.20451 -0.46006,-0.13834 -0.49842,-0.19415 -0.67471,-0.98164 0.63337,-2.05495 1.4612,-2.27745 2.93383,-0.78855 5.12804,2.38292 5.34315,4.92797 0.50753,6.00461 -5.7048,9.90279 -11.08015,9.79988 -10.3054,-0.19729 -16.55558,-10.81418 -15.74778,-20.25027 1.36416,-15.93501 17.87978,-25.23039 32.70275,-23.27602 22.97751,3.02952 36.05044,27.04279 32.46453,48.66089 -5.22611,31.50631 -38.42587,49.1244 -68.31986,43.38582 -41.5871,-7.98323 -64.550103,-52.13812 -56.10638,-91.85407 1.54262,-7.25588 4.02914,-14.30506 7.34576,-20.93921" />
    <path
       transform="matrix(-1,0,0,-1,374.95964,1051.9003)"
       sodipodi:type="spiral"
       style="fill:none;stroke:#000000;stroke-width:1px;stroke-linecap:butt;stroke-linejoin:miter;stroke-opacity:1"
       id="path3172-4-9"
       sodipodi:cx="185.34483"
       sodipodi:cy="191.39966"
       sodipodi:expansion="2.3099999"
       sodipodi:revolution="2.29"
       sodipodi:radius="89.177277"
       sodipodi:argument="-67.172791"
       sodipodi:t0="0"
       d="m 185.34483,191.39966 c -0.0797,0.20451 -0.46006,-0.13834 -0.49842,-0.19415 -0.67471,-0.98164 0.63337,-2.05495 1.4612,-2.27745 2.93383,-0.78855 5.12804,2.38292 5.34315,4.92797 0.50753,6.00461 -5.7048,9.90279 -11.08015,9.79988 -10.3054,-0.19729 -16.55558,-10.81418 -15.74778,-20.25027 1.36416,-15.93501 17.87978,-25.23039 32.70275,-23.27602 22.97751,3.02952 36.05044,27.04279 32.46453,48.66089 -5.22611,31.50631 -38.42587,49.1244 -68.31986,43.38582 -41.5871,-7.98323 -64.550103,-52.13812 -56.10638,-91.85407 1.54262,-7.25588 4.02914,-14.30506 7.34576,-20.93921" />
    <path
       transform="matrix(-1,0,0,1,374.91571,697.80964)"
       sodipodi:type="spiral"
       style="fill:none;stroke:#000000;stroke-width:1px;stroke-linecap:butt;stroke-linejoin:miter;stroke-opacity:1"
       id="path3172-7-8-0"
       sodipodi:cx="185.34483"
       sodipodi:cy="191.39966"
       sodipodi:expansion="2.3099999"
       sodipodi:revolution="2.29"
       sodipodi:radius="89.177277"
       sodipodi:argument="-67.172791"
       sodipodi:t0="0"
       d="m 185.34483,191.39966 c -0.0797,0.20451 -0.46006,-0.13834 -0.49842,-0.19415 -0.67471,-0.98164 0.63337,-2.05495 1.4612,-2.27745 2.93383,-0.78855 5.12804,2.38292 5.34315,4.92797 0.50753,6.00461 -5.7048,9.90279 -11.08015,9.79988 -10.3054,-0.19729 -16.55558,-10.81418 -15.74778,-20.25027 1.36416,-15.93501 17.87978,-25.23039 32.70275,-23.27602 22.97751,3.02952 36.05044,27.04279 32.46453,48.66089 -5.22611,31.50631 -38.42587,49.1244 -68.31986,43.38582 -41.5871,-7.98323 -64.550103,-52.13812 -56.10638,-91.85407 1.54262,-7.25588 4.02914,-14.30506 7.34576,-20.93921" />
    <path
       transform="translate(-160.14507,696.53564)"
       sodipodi:type="spiral"
       style="fill:none;stroke:#000000;stroke-width:1px;stroke-linecap:butt;stroke-linejoin:miter;stroke-opacity:1"
       id="path3172-1"
       sodipodi:cx="185.34483"
       sodipodi:cy="191.39966"
       sodipodi:expansion="2.3099999"
       sodipodi:revolution="2.29"
       sodipodi:radius="89.177277"
       sodipodi:argument="-67.172791"
       sodipodi:t0="0"
       d="m 185.34483,191.39966 c -0.0797,0.20451 -0.46006,-0.13834 -0.49842,-0.19415 -0.67471,-0.98164 0.63337,-2.05495 1.4612,-2.27745 2.93383,-0.78855 5.12804,2.38292 5.34315,4.92797 0.50753,6.00461 -5.7048,9.90279 -11.08015,9.79988 -10.3054,-0.19729 -16.55558,-10.81418 -15.74778,-20.25027 1.36416,-15.93501 17.87978,-25.23039 32.70275,-23.27602 22.97751,3.02952 36.05044,27.04279 32.46453,48.66089 -5.22611,31.50631 -38.42587,49.1244 -68.31986,43.38582 -41.5871,-7.98323 -64.550103,-52.13812 -56.10638,-91.85407 1.54262,-7.25588 4.02914,-14.30506 7.34576,-20.93921" />
    <path
       transform="matrix(1,0,0,-1,-160.10114,1050.6262)"
       sodipodi:type="spiral"
       style="fill:none;stroke:#000000;stroke-width:1px;stroke-linecap:butt;stroke-linejoin:miter;stroke-opacity:1"
       id="path3172-7-94"
       sodipodi:cx="185.34483"
       sodipodi:cy="191.39966"
       sodipodi:expansion="2.3099999"
       sodipodi:revolution="2.29"
       sodipodi:radius="89.177277"
       sodipodi:argument="-67.172791"
       sodipodi:t0="0"
       d="m 185.34483,191.39966 c -0.0797,0.20451 -0.46006,-0.13834 -0.49842,-0.19415 -0.67471,-0.98164 0.63337,-2.05495 1.4612,-2.27745 2.93383,-0.78855 5.12804,2.38292 5.34315,4.92797 0.50753,6.00461 -5.7048,9.90279 -11.08015,9.79988 -10.3054,-0.19729 -16.55558,-10.81418 -15.74778,-20.25027 1.36416,-15.93501 17.87978,-25.23039 32.70275,-23.27602 22.97751,3.02952 36.05044,27.04279 32.46453,48.66089 -5.22611,31.50631 -38.42587,49.1244 -68.31986,43.38582 -41.5871,-7.98323 -64.550103,-52.13812 -56.10638,-91.85407 1.54262,-7.25588 4.02914,-14.30506 7.34576,-20.93921" />
    <path
       transform="matrix(-1,0,0,-1,287.73191,1051.4663)"
       sodipodi:type="spiral"
       style="fill:none;stroke:#000000;stroke-width:1px;stroke-linecap:butt;stroke-linejoin:miter;stroke-opacity:1"
       id="path3172-4-14"
       sodipodi:cx="185.34483"
       sodipodi:cy="191.39966"
       sodipodi:expansion="2.3099999"
       sodipodi:revolution="2.29"
       sodipodi:radius="89.177277"
       sodipodi:argument="-67.172791"
       sodipodi:t0="0"
       d="m 185.34483,191.39966 c -0.0797,0.20451 -0.46006,-0.13834 -0.49842,-0.19415 -0.67471,-0.98164 0.63337,-2.05495 1.4612,-2.27745 2.93383,-0.78855 5.12804,2.38292 5.34315,4.92797 0.50753,6.00461 -5.7048,9.90279 -11.08015,9.79988 -10.3054,-0.19729 -16.55558,-10.81418 -15.74778,-20.25027 1.36416,-15.93501 17.87978,-25.23039 32.70275,-23.27602 22.97751,3.02952 36.05044,27.04279 32.46453,48.66089 -5.22611,31.50631 -38.42587,49.1244 -68.31986,43.38582 -41.5871,-7.98323 -64.550103,-52.13812 -56.10638,-91.85407 1.54262,-7.25588 4.02914,-14.30506 7.34576,-20.93921" />
    <path
       transform="matrix(-1,0,0,1,287.68798,697.37567)"
       sodipodi:type="spiral"
       style="fill:none;stroke:#000000;stroke-width:1px;stroke-linecap:butt;stroke-linejoin:miter;stroke-opacity:1"
       id="path3172-7-8-5"
       sodipodi:cx="185.34483"
       sodipodi:cy="191.39966"
       sodipodi:expansion="2.3099999"
       sodipodi:revolution="2.29"
       sodipodi:radius="89.177277"
       sodipodi:argument="-67.172791"
       sodipodi:t0="0"
       d="m 185.34483,191.39966 c -0.0797,0.20451 -0.46006,-0.13834 -0.49842,-0.19415 -0.67471,-0.98164 0.63337,-2.05495 1.4612,-2.27745 2.93383,-0.78855 5.12804,2.38292 5.34315,4.92797 0.50753,6.00461 -5.7048,9.90279 -11.08015,9.79988 -10.3054,-0.19729 -16.55558,-10.81418 -15.74778,-20.25027 1.36416,-15.93501 17.87978,-25.23039 32.70275,-23.27602 22.97751,3.02952 36.05044,27.04279 32.46453,48.66089 -5.22611,31.50631 -38.42587,49.1244 -68.31986,43.38582 -41.5871,-7.98323 -64.550103,-52.13812 -56.10638,-91.85407 1.54262,-7.25588 4.02914,-14.30506 7.34576,-20.93921" />
    <path
       transform="translate(380.14613,700.87533)"
       sodipodi:type="spiral"
       style="fill:none;stroke:#000000;stroke-width:1px;stroke-linecap:butt;stroke-linejoin:miter;stroke-opacity:1"
       id="path3172-33"
       sodipodi:cx="185.34483"
       sodipodi:cy="191.39966"
       sodipodi:expansion="2.3099999"
       sodipodi:revolution="2.29"
       sodipodi:radius="89.177277"
       sodipodi:argument="-67.172791"
       sodipodi:t0="0"
       d="m 185.34483,191.39966 c -0.0797,0.20451 -0.46006,-0.13834 -0.49842,-0.19415 -0.67471,-0.98164 0.63337,-2.05495 1.4612,-2.27745 2.93383,-0.78855 5.12804,2.38292 5.34315,4.92797 0.50753,6.00461 -5.7048,9.90279 -11.08015,9.79988 -10.3054,-0.19729 -16.55558,-10.81418 -15.74778,-20.25027 1.36416,-15.93501 17.87978,-25.23039 32.70275,-23.27602 22.97751,3.02952 36.05044,27.04279 32.46453,48.66089 -5.22611,31.50631 -38.42587,49.1244 -68.31986,43.38582 -41.5871,-7.98323 -64.550103,-52.13812 -56.10638,-91.85407 1.54262,-7.25588 4.02914,-14.30506 7.34576,-20.93921" />
    <path
       transform="matrix(1,0,0,-1,380.19006,1054.966)"
       sodipodi:type="spiral"
       style="fill:none;stroke:#000000;stroke-width:1px;stroke-linecap:butt;stroke-linejoin:miter;stroke-opacity:1"
       id="path3172-7-93"
       sodipodi:cx="185.34483"
       sodipodi:cy="191.39966"
       sodipodi:expansion="2.3099999"
       sodipodi:revolution="2.29"
       sodipodi:radius="89.177277"
       sodipodi:argument="-67.172791"
       sodipodi:t0="0"
       d="m 185.34483,191.39966 c -0.0797,0.20451 -0.46006,-0.13834 -0.49842,-0.19415 -0.67471,-0.98164 0.63337,-2.05495 1.4612,-2.27745 2.93383,-0.78855 5.12804,2.38292 5.34315,4.92797 0.50753,6.00461 -5.7048,9.90279 -11.08015,9.79988 -10.3054,-0.19729 -16.55558,-10.81418 -15.74778,-20.25027 1.36416,-15.93501 17.87978,-25.23039 32.70275,-23.27602 22.97751,3.02952 36.05044,27.04279 32.46453,48.66089 -5.22611,31.50631 -38.42587,49.1244 -68.31986,43.38582 -41.5871,-7.98323 -64.550103,-52.13812 -56.10638,-91.85407 1.54262,-7.25588 4.02914,-14.30506 7.34576,-20.93921" />
    <path
       transform="matrix(-1,0,0,-1,828.02311,1055.8061)"
       sodipodi:type="spiral"
       style="fill:none;stroke:#000000;stroke-width:1px;stroke-linecap:butt;stroke-linejoin:miter;stroke-opacity:1"
       id="path3172-4-3"
       sodipodi:cx="185.34483"
       sodipodi:cy="191.39966"
       sodipodi:expansion="2.3099999"
       sodipodi:revolution="2.29"
       sodipodi:radius="89.177277"
       sodipodi:argument="-67.172791"
       sodipodi:t0="0"
       d="m 185.34483,191.39966 c -0.0797,0.20451 -0.46006,-0.13834 -0.49842,-0.19415 -0.67471,-0.98164 0.63337,-2.05495 1.4612,-2.27745 2.93383,-0.78855 5.12804,2.38292 5.34315,4.92797 0.50753,6.00461 -5.7048,9.90279 -11.08015,9.79988 -10.3054,-0.19729 -16.55558,-10.81418 -15.74778,-20.25027 1.36416,-15.93501 17.87978,-25.23039 32.70275,-23.27602 22.97751,3.02952 36.05044,27.04279 32.46453,48.66089 -5.22611,31.50631 -38.42587,49.1244 -68.31986,43.38582 -41.5871,-7.98323 -64.550103,-52.13812 -56.10638,-91.85407 1.54262,-7.25588 4.02914,-14.30506 7.34576,-20.93921" />
    <path
       transform="matrix(-1,0,0,1,827.97918,701.71536)"
       sodipodi:type="spiral"
       style="fill:none;stroke:#000000;stroke-width:1px;stroke-linecap:butt;stroke-linejoin:miter;stroke-opacity:1"
       id="path3172-7-8-13"
       sodipodi:cx="185.34483"
       sodipodi:cy="191.39966"
       sodipodi:expansion="2.3099999"
       sodipodi:revolution="2.29"
       sodipodi:radius="89.177277"
       sodipodi:argument="-67.172791"
       sodipodi:t0="0"
       d="m 185.34483,191.39966 c -0.0797,0.20451 -0.46006,-0.13834 -0.49842,-0.19415 -0.67471,-0.98164 0.63337,-2.05495 1.4612,-2.27745 2.93383,-0.78855 5.12804,2.38292 5.34315,4.92797 0.50753,6.00461 -5.7048,9.90279 -11.08015,9.79988 -10.3054,-0.19729 -16.55558,-10.81418 -15.74778,-20.25027 1.36416,-15.93501 17.87978,-25.23039 32.70275,-23.27602 22.97751,3.02952 36.05044,27.04279 32.46453,48.66089 -5.22611,31.50631 -38.42587,49.1244 -68.31986,43.38582 -41.5871,-7.98323 -64.550103,-52.13812 -56.10638,-91.85407 1.54262,-7.25588 4.02914,-14.30506 7.34576,-20.93921" />
    <path
       transform="translate(466.07195,701.74326)"
       sodipodi:type="spiral"
       style="fill:none;stroke:#000000;stroke-width:1px;stroke-linecap:butt;stroke-linejoin:miter;stroke-opacity:1"
       id="path3172-8"
       sodipodi:cx="185.34483"
       sodipodi:cy="191.39966"
       sodipodi:expansion="2.3099999"
       sodipodi:revolution="2.29"
       sodipodi:radius="89.177277"
       sodipodi:argument="-67.172791"
       sodipodi:t0="0"
       d="m 185.34483,191.39966 c -0.0797,0.20451 -0.46006,-0.13834 -0.49842,-0.19415 -0.67471,-0.98164 0.63337,-2.05495 1.4612,-2.27745 2.93383,-0.78855 5.12804,2.38292 5.34315,4.92797 0.50753,6.00461 -5.7048,9.90279 -11.08015,9.79988 -10.3054,-0.19729 -16.55558,-10.81418 -15.74778,-20.25027 1.36416,-15.93501 17.87978,-25.23039 32.70275,-23.27602 22.97751,3.02952 36.05044,27.04279 32.46453,48.66089 -5.22611,31.50631 -38.42587,49.1244 -68.31986,43.38582 -41.5871,-7.98323 -64.550103,-52.13812 -56.10638,-91.85407 1.54262,-7.25588 4.02914,-14.30506 7.34576,-20.93921" />
    <path
       transform="matrix(1,0,0,-1,466.11588,1055.8339)"
       sodipodi:type="spiral"
       style="fill:none;stroke:#000000;stroke-width:1px;stroke-linecap:butt;stroke-linejoin:miter;stroke-opacity:1"
       id="path3172-7-0"
       sodipodi:cx="185.34483"
       sodipodi:cy="191.39966"
       sodipodi:expansion="2.3099999"
       sodipodi:revolution="2.29"
       sodipodi:radius="89.177277"
       sodipodi:argument="-67.172791"
       sodipodi:t0="0"
       d="m 185.34483,191.39966 c -0.0797,0.20451 -0.46006,-0.13834 -0.49842,-0.19415 -0.67471,-0.98164 0.63337,-2.05495 1.4612,-2.27745 2.93383,-0.78855 5.12804,2.38292 5.34315,4.92797 0.50753,6.00461 -5.7048,9.90279 -11.08015,9.79988 -10.3054,-0.19729 -16.55558,-10.81418 -15.74778,-20.25027 1.36416,-15.93501 17.87978,-25.23039 32.70275,-23.27602 22.97751,3.02952 36.05044,27.04279 32.46453,48.66089 -5.22611,31.50631 -38.42587,49.1244 -68.31986,43.38582 -41.5871,-7.98323 -64.550103,-52.13812 -56.10638,-91.85407 1.54262,-7.25588 4.02914,-14.30506 7.34576,-20.93921" />
    <path
       transform="matrix(-1,0,0,-1,913.94895,1056.674)"
       sodipodi:type="spiral"
       style="fill:none;stroke:#000000;stroke-width:1px;stroke-linecap:butt;stroke-linejoin:miter;stroke-opacity:1"
       id="path3172-4-4"
       sodipodi:cx="185.34483"
       sodipodi:cy="191.39966"
       sodipodi:expansion="2.3099999"
       sodipodi:revolution="2.29"
       sodipodi:radius="89.177277"
       sodipodi:argument="-67.172791"
       sodipodi:t0="0"
       d="m 185.34483,191.39966 c -0.0797,0.20451 -0.46006,-0.13834 -0.49842,-0.19415 -0.67471,-0.98164 0.63337,-2.05495 1.4612,-2.27745 2.93383,-0.78855 5.12804,2.38292 5.34315,4.92797 0.50753,6.00461 -5.7048,9.90279 -11.08015,9.79988 -10.3054,-0.19729 -16.55558,-10.81418 -15.74778,-20.25027 1.36416,-15.93501 17.87978,-25.23039 32.70275,-23.27602 22.97751,3.02952 36.05044,27.04279 32.46453,48.66089 -5.22611,31.50631 -38.42587,49.1244 -68.31986,43.38582 -41.5871,-7.98323 -64.550103,-52.13812 -56.10638,-91.85407 1.54262,-7.25588 4.02914,-14.30506 7.34576,-20.93921" />
    <path
       transform="matrix(-1,0,0,1,913.90505,702.58329)"
       sodipodi:type="spiral"
       style="fill:none;stroke:#000000;stroke-width:1px;stroke-linecap:butt;stroke-linejoin:miter;stroke-opacity:1"
       id="path3172-7-8-58"
       sodipodi:cx="185.34483"
       sodipodi:cy="191.39966"
       sodipodi:expansion="2.3099999"
       sodipodi:revolution="2.29"
       sodipodi:radius="89.177277"
       sodipodi:argument="-67.172791"
       sodipodi:t0="0"
       d="m 185.34483,191.39966 c -0.0797,0.20451 -0.46006,-0.13834 -0.49842,-0.19415 -0.67471,-0.98164 0.63337,-2.05495 1.4612,-2.27745 2.93383,-0.78855 5.12804,2.38292 5.34315,4.92797 0.50753,6.00461 -5.7048,9.90279 -11.08015,9.79988 -10.3054,-0.19729 -16.55558,-10.81418 -15.74778,-20.25027 1.36416,-15.93501 17.87978,-25.23039 32.70275,-23.27602 22.97751,3.02952 36.05044,27.04279 32.46453,48.66089 -5.22611,31.50631 -38.42587,49.1244 -68.31986,43.38582 -41.5871,-7.98323 -64.550103,-52.13812 -56.10638,-91.85407 1.54262,-7.25588 4.02914,-14.30506 7.34576,-20.93921" />
  </g>
</svg>
