<?xml version="1.0" encoding="UTF-8" standalone="no"?>
<!-- Created with Inkscape (http://www.inkscape.org/) -->

<svg
   xmlns:dc="http://purl.org/dc/elements/1.1/"
   xmlns:cc="http://creativecommons.org/ns#"
   xmlns:rdf="http://www.w3.org/1999/02/22-rdf-syntax-ns#"
   xmlns:svg="http://www.w3.org/2000/svg"
   xmlns="http://www.w3.org/2000/svg"
   xmlns:sodipodi="http://sodipodi.sourceforge.net/DTD/sodipodi-0.dtd"
   xmlns:inkscape="http://www.inkscape.org/namespaces/inkscape"
   width="300"
   height="300"
   id="svg2"
   version="1.1"
   inkscape:version="0.48.4 r9939"
   sodipodi:docname="logo.png">
  <defs
     id="defs4" />
  <sodipodi:namedview
     id="base"
     pagecolor="#ffffff"
     bordercolor="#666666"
     borderopacity="1.0"
     inkscape:pageopacity="0.0"
     inkscape:pageshadow="2"
     inkscape:zoom="0.93303299"
     inkscape:cx="330.00582"
     inkscape:cy="202.42314"
     inkscape:document-units="px"
     inkscape:current-layer="layer1"
     showgrid="false"
     inkscape:window-width="1280"
     inkscape:window-height="972"
     inkscape:window-x="0"
     inkscape:window-y="24"
     inkscape:window-maximized="0" />
  <metadata
     id="metadata7">
    <rdf:RDF>
      <cc:Work
         rdf:about="">
        <dc:format>image/svg+xml</dc:format>
        <dc:type
           rdf:resource="http://purl.org/dc/dcmitype/StillImage" />
        <dc:title></dc:title>
      </cc:Work>
    </rdf:RDF>
  </metadata>
  <g
     inkscape:label="Capa 1"
     inkscape:groupmode="layer"
     id="layer1"
     transform="translate(0,-752.36218)">
    <path
       style="opacity:0.12595418;fill:#333333;fill-opacity:1;stroke:#000000;stroke-width:0.93457943;stroke-linejoin:miter;stroke-miterlimit:4;stroke-opacity:0;stroke-dasharray:3.73831776, 1.86915888, 0.93457944, 1.86915888;stroke-dashoffset:0"
       d=""
       id="path3045"
       inkscape:connector-curvature="0" />
    <path
       style="opacity:0.12595418;fill:#333333;fill-opacity:1;stroke:#000000;stroke-width:0.93457943;stroke-linejoin:miter;stroke-miterlimit:4;stroke-opacity:0;stroke-dasharray:3.73831776, 1.86915888, 0.93457944, 1.86915888;stroke-dashoffset:0"
       d=""
       id="path3061"
       inkscape:connector-curvature="0" />
    <path
       style="fill:none;stroke:#000000;stroke-width:0.85760182px;stroke-linecap:butt;stroke-linejoin:miter;stroke-opacity:1"
       d="m 146.29637,902.90725 c -0.003,-0.002 0.003,-0.005 0.004,-0.005 0.011,-0.004 0.0184,0.0101 0.0186,0.0188 5.6e-4,0.0262 -0.0294,0.0393 -0.0518,0.0361 -0.0469,-0.007 -0.0676,-0.0603 -0.0576,-0.10215 0.0178,-0.0736 0.10225,-0.104 0.16949,-0.0835 0.10572,0.0322 0.14774,0.15603 0.11343,0.2547 -0.0501,0.14405 -0.22057,0.19978 -0.35618,0.14798 -0.18766,-0.0717 -0.25882,-0.29727 -0.18622,-0.47613 0.0965,-0.23779 0.38421,-0.32657 0.61151,-0.22937 0.29284,0.12523 0.40084,0.48385 0.27589,0.76626 -0.15698,0.35476 -0.59303,0.48432 -0.93529,0.32764 -0.42121,-0.19283 -0.57375,-0.71568 -0.38242,-1.12487 0.23145,-0.49497 0.84698,-0.67298 1.32741,-0.44279 0.57272,0.27444 0.77748,0.99265 0.50574,1.55186 -0.31991,0.65835 -1.14595,0.89252 -1.78768,0.57476 -0.74738,-0.37005 -1.012,-1.31469 -0.6459,-2.04709 0.42234,-0.8449 1.48989,-1.14287 2.31607,-0.72357 0.94511,0.47965 1.27725,1.68175 0.80281,2.61051 -0.5387,1.05454 -1.87873,1.42397 -2.91244,0.88916 -1.16593,-0.60321 -1.57321,-2.09377 -0.97649,-3.24198 0.66901,-1.28732 2.31242,-1.73586 3.57673,-1.07157 1.40978,0.74074 1.89986,2.55071 1.16693,3.94149 -0.81325,1.54314 -2.79094,2.07844 -4.30888,1.27071 -1.67667,-0.89219 -2.25714,-3.05252 -1.37408,-4.7089 0.97137,-1.82206 3.31421,-2.45174 5.1088,-1.48664 1.96655,1.05757 2.64505,3.59915 1.59795,5.54422 -1.1434,2.12399 -3.8822,2.85566 -5.97644,1.71928 -2.27943,-1.23687 -3.06355,-4.19057 -1.83854,-6.44735 1.32931,-2.44893 4.49489,-3.29024 6.91176,-1.96866 2.61529,1.43006 3.51262,4.82676 2.09582,7.41826 -1.5291,2.79688 -5.15225,3.75543 -7.91472,2.23476 -2.97408,-1.63715 -3.99223,-5.50766 -2.36975,-8.45689 1.74273,-3.16782 5.85421,-4.25123 8.98522,-2.51757 3.35582,1.85813 4.5024,6.23327 2.6604,9.5632 -1.97024,3.56174 -6.60081,4.77759 -10.1233,2.81706 -3.76048,-2.09297 -5.04306,-7.00352 -2.96768,-10.73713 2.21159,-3.97862 7.39195,-5.33452 11.32884,-3.13326 4.18806,2.34171 5.61424,7.81844 3.29163,11.97867 -2.46678,4.41846 -8.22766,5.92201 -12.60185,3.46614 -4.63854,-2.60428 -6.21588,-8.67798 -3.63221,-13.28778 2.73578,-4.88121 9.10788,-6.54 13.94227,-3.81567 5.1119,2.8807 6.84799,9.58209 3.98944,14.6644 -3.01862,5.3669 -10.03261,7.18851 -15.3501,4.18187 -5.60813,-3.17098 -7.51053,-10.53078 -4.36328,-16.10852 3.31529,-5.8755 11.00183,-7.86752 16.82525,-4.56472 6.12724,3.4751 8.20356,11.52402 4.75376,17.62008 -3.62574,6.407 -12.01548,8.57703 -18.36773,4.96424 -6.66921,-3.79304 -8.92696,-12.56179 -5.16085,-19.19908 3.95002,-6.9614 13.07359,-9.317 19.97752,-5.3804 7.23402,4.12482 9.68079,13.64409 5.58454,20.84549 -4.28809,7.53869 -14.17612,10.08742 -21.65457,5.81318 -7.82165,-4.47041 -10.46499,-14.77086 -6.02483,-22.55928 4.63995,-8.13881 15.32305,-10.88828 23.39884,-6.26258 8.43214,4.82982 11.27961,15.94212 6.48172,24.3404 -5.00559,8.76184 -16.51436,11.71959 -25.21032,6.72861 -9.06543,-5.20304 -12.12459,-17.15782 -6.95519,-26.18882 5.38501,-9.40773 17.75004,-12.58132 27.08898,-7.21126 9.72155,5.59005 12.99993,18.41797 7.44527,28.10455 -5.77823,10.07645 -19.03008,13.47347 -29.03483,7.71052 -10.40045,-5.99089 -13.90563,-19.72255 -7.9519,-30.08757 6.18522,-10.76801 20.35446,-14.396 31.0478,-8.22636 11.10215,6.40549 14.84165,21.07153 8.4751,32.1378 -6.60595,11.48243 -21.72314,15.34895 -33.12787,8.75883 -11.82665,-6.8339 -15.80803,-22.46489 -9.01488,-34.25528 7.04047,-12.21964 23.13614,-16.33225 35.27505,-9.30789 12.57392,7.2761 16.80472,23.90267 9.57121,36.43997 -7.48873,12.97969 -24.59344,17.34595 -37.48929,9.87353 -13.34398,-7.73207 -17.83173,-25.3848 -10.14411,-38.69184 7.95075,-13.76254 26.09501,-18.38998 39.7706,-10.45575 14.13678,8.20183 18.88901,26.91128 10.73354,41.01087 -8.42652,14.56819 -27.64086,19.46438 -42.11892,11.05455 -14.95237,-8.68534 -19.97663,-28.4821 -11.33955,-43.39704 8.91605,-15.39665 29.23097,-20.56913 44.53428,-11.66993 15.79069,9.18263 21.0945,30.09727 11.96206,45.85034 -9.4193,16.2479 -30.86528,21.70422 -47.0166,12.30188 -16.65177,-9.6937 -22.24266,-31.75673 -12.60113,-48.37074 9.9363,-17.12194 32.54386,-22.86964 49.56591,-12.95039 17.53559,10.21851 23.42109,33.46049 13.25673,50.95823 -10.46703,18.01875 -34.26664,24.06537 -52.18217,13.61546 -18.44215,-10.75708 -24.62979,-35.20856 -13.92886,-53.61278 11.0115,-18.93836 36.03362,-25.29143 54.86538,-14.29709 19.37143,11.30941 25.86873,37.0009 14.6175,56.33438 -11.56967,19.88071 -37.84481,26.54779 -57.61549,14.99528 -20.32345,-11.87549 -27.137937,-38.83752 -15.32269,-59.12305 12.14159,-20.84582 39.70018,-27.83442 60.43253,-15.71 21.29817,12.45533 28.43737,40.71839 16.04438,61.97872 -12.72724,21.8337 -41.59973,29.15136 -63.31646,16.44127 -22.295608,-13.04889 -29.767032,-42.64351 -16.78258,-64.90137 13.32658,-22.84434 43.54344,-30.49861 66.26726,-17.1891 23.31576,13.6562 31.12692,44.61287 17.53729,67.89103 -13.93964,23.87773 -45.53128,31.8761 -69.28492,17.95345 -24.35861,-14.27725 -32.517026,-46.62646 -18.3085,-70.94767 14.56642,-24.93383 47.56329,-33.28387 72.3694,-18.73433 25.42417,14.91204 33.93737,48.68426 19.09624,74.07126 -15.20691,26.0127 -49.63942,34.72191 -75.52074,19.53176 -26.512854,-15.56079 -35.38832,-50.78651 -19.900891,-77.26202 15.861111,-27.11429 51.759691,-36.19021 78.738891,-20.3457 27.62335,16.22281 36.86861,52.9325 20.72116,80.51926 -16.52899,28.23861 -53.92405,37.68878 -82.02383,21.17616 -28.756965,-16.89877 -38.379528,-55.1229 -21.55837,-83.84363 17.21058,-29.38566 56.13253,-39.21755 85.37557,-22.02316 29.91326,17.58847 39.92063,57.35749 22.41207,87.23493 -17.90589,30.5554 -58.38512,40.77657 -88.79408,22.88665 -31.092237,-18.29188 -41.49193,-59.63624 -23.282248,-90.69308 18.614868,-31.74789 60.681768,-42.36583 92.279348,-23.76669 32.29387,19.00901 43.09338,61.95917 24.16891,94.21813 -19.33754,32.96308 -63.02252,43.98538 -95.83136,24.66322 -33.518195,-19.73986 -44.725024,-64.32625 -25.072059,-97.81006 20.073909,-34.20095 65.407329,-45.63502 99.450129,-25.57624 34.76515,20.48442 46.3868,66.73747 25.99164,101.46881 -20.82393,35.46154 -67.83619,47.31502 -103.13558,26.50579 C 70.991857,946.80973 58.947879,898.85959 80.098888,862.85801 101.68658,826.11318 150.40803,813.83293 186.98667,835.40619 c 37.32706,22.01465 49.80086,71.69233 27.88031,108.98683 -22.3651,38.05086 -72.82612,50.76546 -110.70666,28.41441 -38.642008,-22.80038 -51.553126,-74.236 -28.84934,-112.84612 23.156188,-39.37949 75.38712,-52.53597 114.59224,-29.3934 39.97956,23.59972 53.33551,76.82368 29.83482,116.77211 -23.96096,40.73089 -77.99218,54.33678 -118.54448,30.38893 -41.339797,-24.4128 -55.14805,-79.45551 -30.83678,-120.76493 24.779404,-42.10488 80.64125,-56.16764 122.5634,-31.40097 42.72265,25.2396 56.99071,82.13147 31.85518,124.82456 C 199.16384,993.88919 141.44103,1008.4164 98.12641,982.8171 53.998263,956.737 39.262902,897.96558 65.236349,853.86615 91.693651,808.94516 151.30778,793.9461 196.03751,820.39168 c 45.55627,26.93424 60.76641,87.61561 33.94138,133.14408 -27.31676,46.36305 -88.85254,61.84154 -135.019999,34.53601 C 47.951872,960.26959 32.25944,897.64788 59.949736,850.66773 88.139611,802.83998 151.62737,786.8746 199.25519,815.05384 c 48.4804,28.68365 64.6626,93.27608 36.09338,141.73059 -29.07664,49.31487 -94.5467,65.77457 -143.657506,36.70802 -49.97639,-29.57896 -66.655847,-96.1725 -37.194044,-146.12401 29.977095,-50.82517 97.45977,-67.78687 148.07619,-37.81923 51.495,30.48781 68.67919,99.11282 38.31115,150.58401 -30.89119,52.35788 -100.41681,69.82908 -152.56144,38.9466 C 35.286697,967.66941 17.590268,896.98256 48.878217,843.96905 80.697164,790.05582 152.29603,772.0678 205.9915,803.87859 c 54.60004,32.3467 72.81619,105.12575 40.59468,159.70425 C 213.82583,1019.0741 140.1234,1037.5865 84.854502,1004.8336 28.668017,971.53694 9.9246704,896.63532 43.093379,840.46921 76.8088,783.37734 152.64509,764.333 209.51005,798.04166 267.30556,832.30197 286.58359,909.35649 252.45401,967.13292 217.76988,1025.8481 139.76944,1045.4318 81.285844,1010.7537 21.858676,975.51613 2.0384921,896.27826 37.142575,836.86897 72.809066,776.50786 153.00397,756.37723 213.1288,792.03847 274.21022,828.26706 294.58003,909.71848 258.48779,970.78336 221.82529,1032.813 139.40565,1053.498 77.616973,1016.84 14.858735,979.60675 -6.0682155,895.91135 31.025838,833.16833 68.697997,769.44746 153.37266,748.20056 216.84777,785.86905 c 64.45766,38.25158 85.94921,124.22126 47.8397,188.6651 C 225.99202,1039.9688 139.03205,1061.7851 73.847921,1023.0925 7.6682452,983.80896 -14.395374,895.53462 24.743221,829.36733 64.475609,762.19617 153.75117,739.80304 220.6669,779.53346 c 67.92427,40.32922 90.56745,130.9385 50.38612,198.8519 C 230.27006,1047.3156 138.64864,1070.293 69.978708,1029.5112 0.28726664,988.12267 -22.942933,895.14804 18.294765,825.466 60.141938,754.75407 154.13949,731.18473 224.58618,773.03174 c 71.48121,42.46152 95.30591,137.8317 52.9982,209.30509 -16.47584,27.83387 -41.71771,50.03907 -71.37444,62.85347"
       id="path2985"
       inkscape:connector-curvature="0" />
    <path
       style="fill:none;stroke:#000000;stroke-width:0.85760182px;stroke-linecap:butt;stroke-linejoin:miter;stroke-opacity:1"
       d="m 207.92242,1044.3537 c -47.05076,20.446 -94.98326,9.4874 -94.98326,9.4874 C -1.7989427,1029.3607 -1.4031159,920.70657 -1.4031159,920.70657"
       id="path2987"
       inkscape:connector-curvature="0"
       sodipodi:nodetypes="ccc" />
    <path
       style="opacity:0.12595418;fill:#333333;fill-opacity:1;stroke:#000000;stroke-width:0.85760182;stroke-linejoin:miter;stroke-miterlimit:4;stroke-opacity:0;stroke-dasharray:3.43040717, 1.71520358, 0.85760179, 1.71520358;stroke-dashoffset:0"
       id="path3027"
       d="m 49.072313,884.8784 c -0.06871,2.04041 -0.04558,4.08277 -0.03693,6.12399 0.0086,1.73387 0.01293,3.46777 0.01525,5.20168 0.0017,1.60581 0.0017,3.21163 0.0017,4.81743 -0.135558,1.44164 0.190523,2.82326 0.444306,4.22747 0.222294,1.25709 0.531392,2.52642 0.942376,3.73705 0.381002,1.19309 0.641066,2.2025 1.364121,3.22843 0.713236,1.075 1.56706,2.03426 2.370168,3.03851 0.817435,0.76238 1.44995,1.72183 2.431663,2.28383 1.226431,0.46234 2.564898,0.45487 3.858033,0.48708 1.415625,0.0536 2.756252,-0.51675 4.074979,-0.96289 0.231514,-0.11481 0.458846,-0.23848 0.694532,-0.34442 1.600056,-0.71911 -0.0521,0.14532 1.380804,-0.72872 0.210238,-0.12823 0.860584,-0.47905 0.647415,-0.35577 -3.162481,1.82885 -12.641792,7.32925 -9.495488,5.47259 3.585829,-2.116 7.2094,-4.16714 10.814104,-6.25071 -17.226907,10.51698 -10.243923,6.23804 -6.664349,3.35459 1.097486,-0.71016 2.095762,-1.50708 2.922056,-2.52287 0.909817,-1.04465 1.64983,-2.2216 2.440676,-3.35614 0.785338,-0.91815 1.330638,-2.00247 2.075962,-2.95048 0.927682,-1.17458 1.658422,-2.48109 2.373115,-3.79143 0.580712,-1.35186 1.134939,-2.73324 1.5606,-4.14436 0.491653,-1.45358 0.867593,-2.92305 1.068167,-4.44451 0.06478,-1.43799 0.482082,-2.81846 0.716294,-4.23098 0.309468,-1.30623 0.645376,-2.6008 0.922327,-3.91633 1.240945,-4.56184 4.14063,-3.49695 10.882119,-7.09827 0.107574,-0.0575 1.354157,0.49179 1.535717,0.54264 1.140911,0.57816 2.157437,1.34936 3.14214,2.16446 1.289321,0.92606 2.549107,1.90016 3.753551,2.93844 1.162606,1.17146 2.295848,2.36814 3.401646,3.59266 1.014436,1.08426 1.785633,2.3428 2.618123,3.56008 0.60257,0.96812 1.29956,1.90458 2.12922,2.69034 0.87487,0.95529 1.52585,2.08217 2.39275,3.0422 0.80672,1.01681 1.79376,1.86944 2.64963,2.84546 0.96911,0.87478 1.83646,1.77927 2.39728,2.96851 0.47475,1.27149 0.92468,2.52622 1.16847,3.86532 0.29625,1.62612 0.22799,3.22706 -0.13351,4.83071 -0.4636,1.68802 -1.16475,3.29327 -2.12207,4.75592 -2.8414,4.87465 -8.60358,6.78436 -13.536345,9.21181 -1.588592,0.71814 -3.314113,0.90685 -5.032754,1.01258 -1.637276,0.016 -3.295742,0.1921 -4.912094,-0.1079 -1.67891,-0.20079 -3.20241,-0.79502 -4.66696,-1.61586 -1.56137,-0.57387 -2.934728,-1.51026 -4.402825,-2.2582 -1.425958,-0.85954 -2.323892,-2.27086 -3.120676,-3.69087 -0.794524,-1.53234 -1.02572,-3.22984 -1.157148,-4.92683 -0.06237,-1.39626 0.430202,-2.63098 1.519806,-3.50239 3.859129,-3.3494 8.21447,-6.37794 13.251379,-6.82587 0,0 -9.499978,7.1279 -9.499978,7.1279 l 0,0 c -0.534898,0.11121 -0.791053,0.14019 -1.297546,0.33859 -0.191449,0.075 -0.734768,0.36835 -0.557612,0.26388 8.722145,-5.14292 12.988676,-7.39045 9.139486,-5.35476 -0.960283,0.80486 -1.871523,1.00425 -2.033222,2.49356 0.08225,1.52637 0.208559,3.07143 0.901275,4.46271 0.697162,1.23868 1.489062,2.43765 2.78128,3.11679 1.426241,0.81643 2.866312,1.58928 4.371928,2.25322 1.408077,0.67191 2.878316,1.11963 4.440089,1.25756 1.587085,0.0806 3.181245,0.0299 4.765237,-0.0916 1.65485,-0.1924 3.27682,-0.5409 4.74338,-1.37361 3.94955,-2.16018 0.99983,-0.55736 -8.635026,5.11987 -0.222046,0.13084 0.467131,-0.22853 0.666274,-0.39223 0.19479,-0.16011 0.323493,-0.38788 0.500865,-0.56714 0.171107,-0.17294 0.394686,-0.29471 0.542848,-0.48773 0.161819,-0.21082 0.24847,-0.47004 0.3727,-0.70506 0.939283,-1.38883 1.850999,-2.76347 2.279629,-4.41977 0.49646,-1.4248 0.59203,-2.85651 0.34554,-4.34913 -0.19221,-1.24811 -0.60544,-2.39935 -1.03132,-3.58134 -0.48308,-1.08431 -1.405374,-1.82064 -2.211283,-2.66743 -0.877396,-0.96371 -1.858877,-1.83063 -2.662637,-2.85835 -0.811513,-0.9708 -1.490991,-2.04457 -2.362276,-2.96547 -0.837939,-0.88613 -1.61237,-1.84345 -2.232949,-2.89602 -0.77581,-1.18488 -1.52667,-2.38797 -2.511364,-3.41925 -1.075158,-1.17876 -2.137498,-2.36971 -3.292641,-3.47165 -1.223851,-1.00155 -2.491923,-1.94946 -3.761254,-2.89153 -0.894857,-0.67308 -1.80422,-1.41014 -2.899402,-1.71525 -0.174458,-0.0367 -0.659248,-0.17508 -0.876127,-0.10529 -0.09358,0.0301 -0.308541,0.24216 -0.223751,0.19237 3.283379,-1.92774 6.548979,-3.88572 9.823463,-5.82858 -0.502603,0.0968 -0.292356,-0.0308 -0.609373,0.41598 -0.463814,1.21245 -0.402209,2.58975 -1.005712,3.77352 -0.173224,1.42542 -0.606339,2.78693 -0.746344,4.20646 -0.148436,1.56365 -0.386589,3.12159 -0.979657,4.58719 -0.334306,1.52335 -1.010271,2.90829 -1.475696,4.39082 -0.647939,1.36409 -1.381669,2.70718 -2.250702,3.93986 -0.678389,1.01605 -1.496775,1.92481 -2.061524,3.02307 -0.976049,1.00298 -1.591779,2.27618 -2.428792,3.39348 -0.865323,0.91289 -1.248065,1.59114 -2.300226,2.36576 -0.181278,0.13345 -0.340579,0.29454 -0.510864,0.44182 -0.689647,0.38258 -1.091386,0.81491 -1.675601,1.32487 -3.492153,3.0483 -10.910848,0.93733 -11.938255,7.12112 3.15632,-1.8328 12.620833,-7.33887 9.46896,-5.4984 -4.284979,2.50209 -8.803698,5.75025 -13.654514,7.53181 -1.403381,0.45447 -2.844574,0.75652 -4.327991,0.61567 -1.47053,-0.0884 -2.976747,-0.20052 -4.256908,-1.0082 -0.980865,-0.74605 -1.772432,-1.69014 -2.610199,-2.5893 -0.829592,-1.01784 -1.65527,-2.03473 -2.419795,-3.10321 -0.761998,-1.09439 -1.145804,-2.23997 -1.514854,-3.51421 -0.459737,-1.25849 -0.764311,-2.6083 -1.025394,-3.91742 -0.25021,-1.4703 -0.66684,-2.91207 -0.520391,-4.42101 0,-1.60634 -9.4e-5,-3.21268 0.0017,-4.81901 0.0026,-1.73909 0.0069,-3.47819 0.01525,-5.21725 0.0085,-2.02865 0.03239,-4.05849 -0.03693,-6.08632 0,0 10.599169,-5.41036 10.599169,-5.41036 z"
       inkscape:connector-curvature="0" />
    <path
       style="opacity:0.12595418;fill:#333333;fill-opacity:1;stroke:#000000;stroke-width:0.85760182;stroke-linejoin:miter;stroke-miterlimit:4;stroke-opacity:0;stroke-dasharray:3.43040717, 1.71520358, 0.85760179, 1.71520358;stroke-dashoffset:0"
       id="path3029"
       d="m 111.3431,898.76396 c -0.004,-1.96062 0.0583,-3.89811 0.34691,-5.83822 0.26823,-1.56333 0.37808,-3.1446 0.43824,-4.72754 -0.0473,-1.44647 0.35107,-2.84219 0.57638,-4.25781 0.1916,-1.5032 0.81009,-2.87596 1.37928,-4.26153 0.555,-1.29308 1.24424,-2.50507 1.7419,-3.82292 0.73306,-1.18769 1.2456,-2.47321 1.82607,-3.73637 0.5877,-1.29518 1.00923,-2.65707 1.57305,-3.96085 0.48346,-1.17054 0.97391,-2.34723 1.57113,-3.4649 0.65951,-1.13053 0.7394,-2.44935 1.0752,-3.68715 0.35168,-1.31742 0.54775,-2.65094 1.00533,-3.939 0.62635,-1.2282 1.39955,-2.38983 2.26564,-3.46279 0.85919,-1.07405 1.69112,-2.15737 2.58377,-3.20278 0.87214,-1.38294 2.09805,-2.42992 3.38862,-3.40404 1.13201,-0.7706 2.28298,-1.52222 3.3099,-2.43171 4.22435,-2.98371 8.53728,-6.15136 13.42693,-7.88032 1.3416,-0.40774 2.62733,-0.99523 3.95518,-1.46885 1.52066,-0.47459 3.11615,-0.55916 4.69633,-0.61843 1.6078,-0.0401 3.21632,-0.029 4.82447,-0.0248 1.52029,0.18482 2.91778,-0.1565 4.38462,-0.45739 1.4665,-0.2599 2.95892,-0.29538 4.44403,-0.32631 1.63598,0.10325 3.01529,0.88042 4.45495,1.57012 1.14035,0.77115 2.09363,1.8221 2.95719,2.89049 0.79926,1.09379 1.37583,2.22242 1.70213,3.53989 0.36441,1.61286 0.29037,3.20978 -0.0693,4.80967 -0.34068,1.48497 -1.08831,2.77569 -1.94819,4.00862 -0.83249,1.03573 -1.7077,2.03069 -2.70708,2.90771 -3.59033,2.05379 -7.18443,4.10097 -10.771,6.16137 -0.36313,0.20861 -1.47119,0.80042 -1.10921,0.58982 20.07993,-11.68186 5.11936,-2.78416 -1.74461,1.01294 24.73182,-14.27156 -0.97563,0.59086 -1.47166,0.87206 -0.72795,0.41268 -0.87643,0.28703 -1.63902,0.59645 -0.54384,0.22067 -0.84677,0.46524 -1.32648,0.79301 -1.38975,0.69867 -2.8311,1.33801 -4.36057,1.64285 2.00553,-1.41645 -4.55503,2.35132 -2.37999,1.08698 19.79858,-11.5088 4.59234,-2.53464 -2.21898,1.27075 -0.27475,0.12588 -1.0853,0.53008 -0.82428,0.37765 3.12713,-1.82633 12.50846,-7.3026 9.42614,-5.40135 -3.71571,2.29194 -8.45964,5.36725 -12.94873,7.22201 -0.59737,0.57841 -1.41028,0.66382 -2.13787,0.96778 -0.70596,0.29494 -1.32521,0.65163 -2.06165,0.89139 -1.34823,0.89639 -2.8593,1.4959 -4.3602,2.08237 -1.64276,0.44895 -3.242,1.00952 -4.923,1.30926 -1.53024,0.4843 -3.09792,0.7986 -4.50827,1.58366 -1.54469,0.69992 -3.13835,1.36342 -4.59276,2.24915 17.63192,-10.10099 9.69146,-5.76305 5.89415,-3.14225 -1.09211,0.6381 -1.91724,1.51407 -2.70137,2.48172 -0.88663,1.14036 -1.46028,2.46636 -1.9674,3.80864 -0.51089,1.48425 -0.61134,3.05366 -0.67775,4.60897 0.007,1.64144 -0.36746,3.24794 -0.57823,4.86867 -0.1872,1.5786 -0.21765,3.1694 -0.23903,4.75714 -0.0137,1.60228 -0.009,3.20464 -0.007,4.80696 0.002,1.60461 0.003,3.20922 0.004,4.81382 3.4e-4,1.6045 3.2e-4,3.209 3.2e-4,4.81349 -1e-5,1.60445 -2e-5,3.2089 -3e-5,4.81336 0.083,1.65292 -0.0484,3.27438 -0.31959,4.90231 -0.20653,1.65322 -0.70252,3.24523 -0.99225,4.88274 -0.23992,1.54305 -0.26768,3.1072 -0.29012,4.66536 -0.075,1.00639 -1.9e-4,0.51819 -0.21636,1.46585 0,0 -10.78996,4.99811 -10.78996,4.99811 l 0,0 c 0.42017,-0.62827 0.26008,-0.27206 0.4411,-1.08545 0.0119,-1.60814 0.0238,-3.22059 0.21121,-4.81994 0.23322,-1.66051 0.75361,-3.24372 0.99171,-4.89494 0.26617,-1.57451 0.54794,-3.1155 0.40568,-4.7244 1e-5,-1.60444 2e-5,-3.2089 4e-5,-4.81336 0,-1.6044 4e-5,-3.20881 -2e-4,-4.81321 -3.2e-4,-1.60428 -8.4e-4,-3.20856 -0.003,-4.81283 -0.002,-1.60654 -0.006,-3.21309 7.7e-4,-4.81961 0.0131,-1.62527 0.0299,-3.25302 0.18278,-4.87242 0.17398,-1.60019 0.56104,-3.17417 0.62222,-4.77869 0.0434,-1.64988 0.10741,-3.31286 0.52545,-4.91862 0.42522,-1.42165 0.97819,-2.85455 1.79174,-4.09652 0.68069,-1.14252 1.48832,-2.12008 2.55952,-2.91741 4.7352,-2.95249 9.13603,-6.41351 14.37113,-8.61703 1.54572,-0.74774 3.07133,-1.5384 4.65955,-2.19459 1.52419,-0.55493 3.07444,-1.01968 4.65929,-1.37181 1.61847,-0.397 3.22295,-0.88805 4.78091,-1.47803 1.48775,-0.65757 2.93143,-1.3944 4.40692,-2.06936 1.39723,-0.60601 2.79867,-1.19581 4.14399,-1.91128 0.46737,-0.23046 0.94066,-0.4491 1.40329,-0.68897 0.22095,-0.11455 0.86935,-0.48521 0.65417,-0.36006 -19.84533,11.54261 -4.5824,2.55519 2.21703,-1.20255 0.26717,-0.14138 1.06233,-0.57688 0.80148,-0.42413 -3.12291,1.82875 -12.58214,7.15398 -9.38836,5.45251 4.26532,-2.27234 8.50958,-5.75445 13.35772,-7.17059 1.4478,-0.50416 2.87537,-1.09758 4.18805,-1.89792 0.72412,-0.35065 1.47977,-0.6131 2.20286,-0.96424 0.25695,-0.12478 1.00295,-0.54711 0.75632,-0.40294 -0.28268,0.16527 -27.22508,15.80086 1.50103,-0.87024 0.22848,-0.12115 0.90849,-0.49432 0.68543,-0.36343 -3.18455,1.86868 -12.77715,7.40747 -9.57048,5.57715 3.57622,-2.04124 7.1167,-4.1447 10.67915,-6.20996 0.36153,-0.2096 1.47598,-0.78313 1.11619,-0.57055 -3.18477,1.88168 -6.38809,3.73166 -9.58214,5.59748 1.16234,-0.58365 2.03566,-1.59642 2.82047,-2.61745 1.02513,-0.94415 1.7698,-2.22818 2.19748,-3.5493 0.48851,-1.39872 0.59937,-2.80264 0.30958,-4.26425 -0.24057,-1.15551 -0.73784,-2.10733 -1.44184,-3.05368 -0.77649,-0.9244 -1.58132,-1.89135 -2.65656,-2.47123 -1.3118,-0.63557 -2.63165,-1.19275 -4.12623,-1.10338 -1.45726,0.0652 -2.91576,0.17046 -4.34227,0.4958 -1.49267,0.29456 -2.98745,0.29299 -4.50601,0.25199 -1.59511,-8.2e-4 -3.19172,-0.009 -4.78492,0.0815 -1.52997,0.1173 -3.05836,0.31349 -4.4867,0.91246 -1.3021,0.52029 -2.62238,0.99308 -3.91792,1.52808 -3.68383,2.02683 -3.29185,1.81775 8.94392,-5.23442 0.85568,-0.49318 -2.72987,1.8319 -2.03709,1.2891 -1.12466,0.82265 -2.09865,1.84155 -3.31044,2.56073 -1.25735,0.69895 -2.7039,1.80826 -3.52269,2.99848 -0.34219,0.53714 -0.40143,0.70041 -0.85863,1.14404 -0.15679,0.15215 -0.37024,0.24496 -0.50661,0.41572 -0.4208,0.52693 -0.57384,1.28268 -1.21725,1.65015 -0.38091,0.55393 -0.89679,1.00306 -1.25926,1.56224 -0.3603,0.55584 -0.57431,1.2079 -1.11772,1.639 -0.61375,1.21006 -0.81461,2.48085 -1.06008,3.80399 -0.39718,1.31404 -0.52214,2.60464 -0.96763,3.8978 -0.56219,1.12291 -1.19343,2.21427 -1.62072,3.3976 -0.56744,1.3086 -1.09175,2.62326 -1.56265,3.97271 -0.1767,0.4042 -0.41294,0.78104 -0.5818,1.1886 -0.36385,0.87817 -0.55424,1.83222 -1.24005,2.55044 -0.3376,0.62514 -0.46947,1.27936 -0.77008,1.92126 -1.00767,2.15159 0.34822,-0.87357 -0.70916,1.18958 -0.11647,0.22725 -0.18757,0.47511 -0.28135,0.71267 -0.61491,1.27377 -1.16978,2.58644 -1.51749,3.95697 -0.1669,1.39921 -0.59338,2.75116 -0.64746,4.15257 -0.0425,1.62759 -0.11458,3.25798 -0.38514,4.86651 -0.31376,1.87823 -0.58298,3.73201 -0.37835,5.64551 0,0 -10.59917,5.41037 -10.59917,5.41037 z"
       inkscape:connector-curvature="0" />
    <path
       style="opacity:0.12595418;fill:#333333;fill-opacity:1;stroke:#000000;stroke-width:0.85760182;stroke-linejoin:miter;stroke-miterlimit:4;stroke-opacity:0;stroke-dasharray:3.43040717, 1.71520358, 0.85760179, 1.71520358;stroke-dashoffset:0"
       id="path3031"
       d="m 115.60911,896.86402 c 1.50682,-1.18478 3.0886,-2.25809 4.66887,-3.33918 26.99443,-15.53692 3.00158,-1.72552 1.28147,-0.74307 -0.17885,0.10217 0.35558,-0.20977 0.52017,-0.33368 0.0829,-0.0624 0.84843,-0.75869 0.93736,-0.81091 3.55646,-2.08853 7.14915,-4.11451 10.72371,-6.17178 -25.53938,14.6716 0.67954,-0.40112 1.0237,-0.59393 3.25512,-1.82362 -6.45686,3.74132 -9.69919,5.58764 -0.16794,0.0956 0.30674,-0.23714 0.4738,-0.33432 10.70565,-6.22687 6.7254,-5.14865 11.32566,-6.32618 1.23475,-0.22195 2.3666,-0.7912 3.50116,-1.30313 0.20118,-0.0629 0.41332,-0.0978 0.60353,-0.18877 0.17666,-0.0845 0.31581,-0.23307 0.48506,-0.33159 0.75864,-0.44167 1.60617,-0.57927 2.45991,-0.70603 1.52444,-0.16982 3.06111,-0.16527 4.59288,-0.17044 1.61926,0.0513 3.25412,-0.13066 4.85206,0.16353 1.81928,0.27921 3.41817,1.31503 4.87315,2.39334 1.27817,0.74848 2.20365,1.82671 3.12601,2.94893 0.8313,1.06571 1.05802,2.40981 1.48273,3.66006 0.66764,1.36224 1.06339,2.80158 1.30204,4.29348 0.3876,1.35867 0.69586,2.72386 0.86295,4.12756 0.003,1.63405 -0.21278,3.29183 -0.70721,4.85056 -2.12866,4.20977 -7.84107,5.36539 -11.56042,7.53581 -0.72194,0.42129 -1.35407,0.55854 -2.1766,0.70603 -1.87275,0.16738 -3.68342,0.66205 -5.54186,0.93157 -1.5724,0.27754 -3.0251,-0.23495 -4.36423,-1.02064 -1.56344,-0.66298 -3.20437,-1.13558 -4.77981,-1.77333 -1.6016,-0.6134 -3.23141,-1.08669 -4.86191,-1.61308 -1.76071,-0.49365 -3.55857,-0.77093 -5.23833,-1.51583 -1.71914,-0.75735 -3.21061,-1.90084 -4.92005,-2.6732 -1.50987,-0.82092 -3.1333,-1.51317 -4.80694,-1.91976 0.14705,-0.78436 -2.5803,0.79101 -1.96394,0.44251 3.30385,-1.87585 6.60771,-3.75169 9.91155,-5.62754 -0.28435,0.0704 -0.2309,-0.0227 -0.25482,0.19631 0.41373,0.97955 0.89011,1.96652 1.76369,2.60519 0.89483,0.95681 2.12607,1.38239 3.22459,2.02181 1.16789,0.84402 2.46657,1.45889 3.67814,2.23917 1.20811,0.66534 2.52851,1.12422 3.71795,1.81801 1.11022,0.55104 2.2434,1.03961 3.35346,1.59387 1.44173,0.83967 2.88701,1.68311 4.386,2.41814 1.48292,0.68171 2.81068,1.59188 4.15077,2.50743 1.10317,0.56149 2.07289,1.34118 3.05127,2.09541 1.12482,0.68487 2.13081,1.54044 3.1621,2.35855 0.90137,1.10737 2.2231,1.65616 3.36648,2.44695 1.24296,0.6736 2.33946,1.58888 3.62042,2.18753 1.0525,0.62787 2.11895,1.29233 3.27074,1.72445 1.20943,0.30164 2.33397,0.94085 3.27172,1.75685 0.8935,0.8387 1.91043,1.5302 2.84994,2.31409 1.26972,0.80845 2.30176,1.91891 3.62166,2.64799 0.11001,-0.008 0.22002,-0.016 0.33003,-0.024 0,0 -9.85333,6.73344 -9.85333,6.73344 l 0,0 c -0.15615,-0.0896 -0.31231,-0.17913 -0.46847,-0.2687 -1.24706,-0.89677 -2.43118,-1.87632 -3.68808,-2.76007 -0.97476,-0.74752 -1.93369,-1.50585 -2.86677,-2.30422 -0.94277,-0.679 -1.9885,-1.13293 -3.09038,-1.49337 -1.1303,-0.54611 -2.23005,-1.15944 -3.3066,-1.80473 -1.25528,-0.71685 -2.43932,-1.55537 -3.68242,-2.2945 -1.204,-0.7582 -2.44555,-1.4593 -3.42223,-2.52002 -1.0397,-0.79559 -2.04218,-1.64195 -3.15599,-2.33587 -0.9889,-0.71962 -1.96195,-1.46 -3.02662,-2.0679 -1.2709,-0.91692 -2.61064,-1.70889 -4.02432,-2.3885 -1.47367,-0.77457 -2.92116,-1.59754 -4.39932,-2.36341 -1.15339,-0.50328 -2.26859,-1.08658 -3.39615,-1.64414 -1.25758,-0.60985 -2.52855,-1.19866 -3.74436,-1.88928 -1.21806,-0.72669 -2.45642,-1.41683 -3.6501,-2.18312 -1.20064,-0.61878 -2.39358,-1.25439 -3.36704,-2.21426 -0.94701,-0.89028 -1.59503,-1.98788 -2.13128,-3.16747 -2.13636,-5.36668 7.75707,-8.50897 12.50556,-7.45504 1.70693,0.52392 3.36776,1.22649 4.92947,2.09474 1.64464,0.8447 3.16606,1.91837 4.89812,2.59094 1.68581,0.59988 3.4433,0.92207 5.1508,1.451 1.67174,0.47717 3.30179,1.05775 4.92999,1.66709 1.63856,0.58927 3.29343,1.15483 4.88275,1.86528 1.2799,0.56106 2.51194,0.75448 3.89796,0.42577 1.82708,-0.32189 3.65389,-0.65978 5.47057,-1.02805 1.02176,-0.36901 0.57518,-0.16665 1.4612,-0.63188 0.19421,-0.10197 0.77023,-0.41973 0.58175,-0.30751 -18.7059,11.13854 -11.35563,7.32934 -8.47087,4.87412 0.74708,-1.30969 0.73683,-2.83578 0.96977,-4.30031 -0.13701,-1.395 -0.415,-2.75346 -0.83517,-4.09226 -0.18938,-1.43128 -0.53618,-2.8076 -1.22465,-4.08927 -0.37982,-1.11828 -0.56245,-2.33204 -1.27878,-3.2956 -0.83315,-1.05441 -1.76085,-1.98098 -2.91203,-2.7013 -1.38651,-0.95141 -2.83799,-1.78028 -4.5535,-1.89536 -1.58613,-0.0836 -3.17615,-0.0321 -4.76393,-0.0351 -1.49413,0.0259 -3.00427,0.0416 -4.46774,0.37942 -1.1931,0.35059 -2.25623,0.97119 -3.40809,1.42988 -1.14444,0.51268 -2.36625,0.82532 -3.54646,1.24104 -3.84216,1.96135 -0.94307,0.49395 9.11575,-5.34856 0.16474,-0.0957 -0.32299,0.20228 -0.48717,0.29892 -3.54351,2.08583 -7.21979,3.95912 -10.63583,6.24846 -0.32812,0.21989 27.87092,-16.16304 -1.0407,0.56622 3.03718,-1.77467 11.99624,-7.34017 9.10316,-5.33837 -0.3598,0.24896 -0.55643,0.69996 -0.93116,0.92574 -0.42896,0.25845 -26.19884,15.18711 -1.31316,0.72971 -1.62103,0.98117 -3.14958,2.08753 -4.67287,3.20845 0,0 -11.0327,4.43556 -11.0327,4.43556 z"
       inkscape:connector-curvature="0" />
    <path
       style="opacity:0.12595418;fill:#333333;fill-opacity:1;stroke:#000000;stroke-width:0.85760182;stroke-linejoin:miter;stroke-miterlimit:4;stroke-opacity:0;stroke-dasharray:3.43040717, 1.71520358, 0.85760179, 1.71520358;stroke-dashoffset:0"
       id="path3035"
       d="m 207.99792,902.0248 c -1.80177,-1.191 -3.62618,-2.34829 -5.43707,-3.52726 -1.90732,-1.18589 -3.77799,-2.43339 -5.70367,-3.58861 -1.49304,-0.8285 -3.15524,-1.24313 -4.7098,-1.91316 -1.95326,-0.75495 -4.00926,-0.74697 -6.05873,-0.57847 -1.93736,0.44982 -3.94161,0.77078 -5.70284,1.73336 0.53963,-0.2153 -2.13447,1.17826 -1.60728,0.87223 3.12263,-1.81272 6.25907,-3.60151 9.39731,-5.38698 0.23576,-0.13414 -0.45437,0.29708 -0.68931,0.43262 -3.60751,2.08121 -7.21442,4.16361 -10.83756,6.21736 -3.19421,1.81061 6.36716,-3.65863 9.55075,-5.48794 -1.25611,0.73231 -2.30474,1.73031 -3.39295,2.67917 -1.24337,1.1256 -2.23741,2.46115 -3.13305,3.87012 -0.78289,1.48098 -1.81799,2.79619 -2.75346,4.17887 -0.87185,1.30436 -1.54959,2.72494 -2.21015,4.14479 -0.43567,1.23371 -0.96413,2.42344 -1.25313,3.70276 -0.26317,1.47661 -0.27231,2.98218 -0.29073,4.47739 -0.10049,1.59501 0.0517,3.15258 0.31639,4.72126 0.30579,1.57342 0.94811,3.01835 1.69586,4.42101 0.8068,1.29251 1.83703,2.45068 2.84629,3.5924 0.95978,1.31865 2.17307,2.42069 3.46423,3.40356 1.06912,0.67465 2.16031,1.28593 3.28157,1.86932 0.74864,0.40957 1.54485,0.0331 2.33879,0.0542 0.1249,0.003 1.18199,0.17942 1.32144,0.20212 1.38422,0.22567 2.78736,0.27647 4.18666,0.31485 1.58003,0.032 3.1605,0.029 4.74077,0.0287 1.58831,-0.0695 3.20362,0.15916 4.76789,-0.15574 1.61894,-0.25931 3.20672,-0.53393 4.72223,-1.17869 4.35405,-1.64616 12.38005,-6.60253 -5.488,3.61253 1.22641,-0.66952 2.04067,-1.68611 2.71827,-2.87559 0.55343,-1.25277 1.1397,-2.48249 1.4664,-3.81679 0.18078,-1.35465 0.61199,-2.65095 0.85102,-3.99391 0.2245,-1.46275 -0.0462,-2.96366 -0.34948,-4.39817 -0.50028,-1.51414 -0.51475,-3.15246 -1.1152,-4.62868 -0.64595,-1.39908 -1.31033,-2.78145 -1.75341,-4.26053 -0.60439,-1.53079 -0.86555,-3.1482 -1.21527,-4.74527 -0.33232,-1.63146 -0.87963,-3.20369 -1.25442,-4.82419 -0.27174,-1.44127 -0.90674,-2.69513 -1.67776,-3.91756 -0.46117,-0.85949 -1.05735,-1.51157 -1.7765,-2.15569 0,0 10.07143,-6.24707 10.07143,-6.24707 l 0,0 c 0.77893,0.7241 1.44172,1.48765 1.97289,2.41437 0.83179,1.3421 1.50312,2.73281 1.84536,4.28928 0.34069,1.62549 0.9151,3.18192 1.24662,4.80962 0.3919,1.56537 0.54203,3.19347 1.19599,4.69073 0.39516,1.45029 1.07429,2.77515 1.69001,4.14082 0.64935,1.54249 0.72166,3.20441 1.19945,4.80313 0.39337,1.54286 0.66126,3.20113 0.57572,4.78967 -0.17251,1.38332 -0.59404,2.68646 -0.82671,4.04693 -0.23589,1.45957 -0.75997,2.75365 -1.33751,4.09821 -0.58889,1.37896 -1.29762,2.56137 -2.46833,3.52299 -4.85611,2.78375 -9.57845,6.06651 -14.90561,7.94181 -1.6,0.47102 -3.2338,0.77051 -4.88926,0.97353 -1.61643,0.0764 -3.23534,0.0281 -4.85319,0.0416 -1.59051,-0.003 -3.1815,-0.003 -4.77126,-0.0582 -1.42928,-0.0633 -2.85469,-0.17349 -4.27069,-0.38499 -1.33519,-0.11561 -2.71063,0.14593 -3.91279,-0.61974 -1.14899,-0.64921 -2.3174,-1.25908 -3.37191,-2.06244 -1.29123,-1.08279 -2.54432,-2.21772 -3.54207,-3.58782 -1.08574,-1.2047 -2.18313,-2.43169 -3.01652,-3.82827 -0.79051,-1.51949 -1.48016,-3.07777 -1.86735,-4.7566 -0.27759,-1.63192 -0.55035,-3.23975 -0.41665,-4.90524 0.007,-1.55203 0.006,-3.10888 0.18037,-4.65319 0.20284,-1.38595 0.67063,-2.63095 1.1507,-3.92953 0.55203,-1.51175 1.35668,-2.94245 2.1505,-4.33597 0.84166,-1.45875 1.99718,-2.69102 2.7631,-4.18809 0.90082,-1.44399 1.75358,-2.92195 2.99057,-4.11527 0.99876,-1.07838 2.14715,-2.00682 3.2979,-2.91357 35.83554,-20.79575 -6.64837,3.87047 2.00677,-1.1691 3.61969,-2.10762 7.23715,-4.21914 10.865,-6.31261 0.51145,-0.29514 1.12771,-0.57752 1.65927,-0.83199 1.91248,-0.67346 3.89137,-1.16698 5.91384,-1.35703 2.1816,-0.0714 4.37677,0.12523 6.41719,0.96097 1.63333,0.60627 3.27532,1.21017 4.77675,2.11147 1.90103,1.20945 3.80114,2.41965 5.7107,3.61576 1.78923,1.16041 3.55178,2.37012 5.43977,3.36743 0,0 -9.92615,6.54293 -9.92615,6.54293 z"
       inkscape:connector-curvature="0" />
    <path
       style="opacity:0.12595418;fill:#333333;fill-opacity:1;stroke:#000000;stroke-width:0.85760182;stroke-linejoin:miter;stroke-miterlimit:4;stroke-opacity:0;stroke-dasharray:3.43040717, 1.71520358, 0.85760179, 1.71520358;stroke-dashoffset:0"
       id="path3037"
       d="m 219.63606,896.10956 c -0.0687,2.04042 -0.0456,4.08276 -0.0369,6.12398 0.009,1.7339 0.013,3.46779 0.0152,5.20169 0.002,1.60581 0.002,3.21162 0.002,4.81744 -3e-5,1.60251 -10e-5,3.20503 -1.3e-4,4.80754 0.004,1.53182 0.22087,3.09027 0.60819,4.57276 0.32811,1.25776 0.8593,2.44225 1.37236,3.63289 0.46067,1.17485 1.11752,2.28532 1.97821,3.20967 0.687,1.07369 1.69317,1.32274 2.8803,1.47994 1.50408,0.13562 3.01677,0.11609 4.52538,0.11266 1.43446,0.0346 2.79095,-0.53013 4.12886,-0.98061 0.24614,-0.0648 0.50094,-0.10271 0.73841,-0.19439 0.21645,-0.0836 0.40946,-0.21856 0.61418,-0.32785 0.20985,-0.0915 0.82771,-0.38933 0.62954,-0.2746 -3.02589,1.75207 -12.15601,6.91664 -9.12324,5.1765 3.57837,-2.05321 7.16218,-4.09692 10.74326,-6.14538 -16.08821,10.36424 -10.88872,6.99413 -7.64001,3.65885 0.89164,-0.96831 1.48476,-2.14998 2.06917,-3.318 0.49127,-1.37485 0.86014,-2.80484 1.16279,-4.23449 0.29378,-1.55011 0.33953,-3.13043 0.37272,-4.70327 0.0216,-1.60306 0.0144,-3.20634 0.0114,-4.80949 -0.13921,-1.58036 -0.4237,-3.14678 -0.81649,-4.68283 -0.30925,-1.63135 -0.77771,-3.20735 -1.3497,-4.76308 -0.45293,-1.5485 -0.90807,-3.07372 -1.58418,-4.53986 -0.46531,-1.29351 -0.94103,-2.56659 -1.6605,-3.74301 -0.70385,-1.33573 -1.57977,-2.66569 -1.85334,-4.17072 -0.39134,-4.44398 -0.22159,-1.01593 10.38718,-6.62281 0.0593,-0.0313 1.57253,0.98708 2.10704,1.30911 1.13692,0.63534 2.27312,1.2554 3.47986,1.76344 1.29083,0.53347 2.51424,1.07661 3.90541,1.30301 1.24631,0.60899 2.64077,0.65689 3.94478,1.04495 1.49197,0.45365 3.04353,0.59498 4.59225,0.68013 1.59369,0.0645 3.18913,0.0572 4.78379,0.0559 1.71943,-0.008 3.43882,0.002 5.15824,8e-4 1.70935,0.17028 3.1878,-0.60632 4.7552,-1.1124 3.53843,-2.07283 8.36307,-4.68214 -8.5357,4.90387 -0.17332,0.0983 0.32748,-0.22719 0.49215,-0.33943 0.9615,-0.65539 0.12447,-0.071 1.11121,-0.76693 1.0878,-0.73897 2.19936,-1.53709 3.02436,-2.57384 7.33925,-5.39768 12.23272,-9.16208 10.60264,-3.21062 -0.41651,1.57948 -0.90523,3.14119 -1.43536,4.68612 -0.49102,1.56861 -0.80667,3.18589 -1.18748,4.78462 -0.3642,1.54596 -0.45901,3.13256 -0.51651,4.71416 -0.16757,1.6597 -0.44618,3.31392 -0.8506,4.93257 -0.33504,1.6801 -1.0021,3.25655 -1.58829,4.85644 -0.67875,1.35492 -1.43191,2.67913 -2.17047,4.00697 -0.65064,1.24849 -0.93406,2.65284 -1.28408,4.00869 -0.37433,1.52177 -0.45901,3.08904 -0.51425,4.64873 -0.0283,1.49695 -0.12115,2.9899 0.15544,4.46713 0.33799,1.22789 1.20556,2.16969 2.22884,2.8807 1.16516,0.71412 2.30566,1.24007 3.6582,1.46693 1.49664,0.18139 3.00791,0.16943 4.51293,0.1722 1.60095,-0.003 3.20189,-0.01 4.80284,-0.0136 1.59862,-0.0677 3.16649,-0.47376 4.76573,-0.64295 1.61042,-0.14482 3.22849,-0.15668 4.84413,-0.16715 1.42532,0.18375 2.48864,-0.68331 3.74209,-1.13879 0.59649,-0.65258 1.44099,-0.6963 2.20133,-0.99142 0.37458,-0.14539 0.71087,-0.3774 1.08135,-0.53295 -9.86623,5.62695 -12.90128,7.47145 -9.26182,5.26616 0,0 10.99547,-4.55235 10.99547,-4.55235 l 0,0 c -2.67413,3.92579 -0.17322,0.41722 -11.05844,6.67478 -1.10495,0.49491 -2.23387,0.92045 -3.29779,1.50362 -1.27574,0.58145 -2.56547,0.85929 -3.98119,0.75996 -1.59113,0.0263 -3.18542,0.0656 -4.76546,0.27204 -1.61143,0.22592 -3.2127,0.60421 -4.85043,0.52935 -1.60365,0.004 -3.20734,0.0142 -4.81101,0.005 -1.56195,-0.0203 -3.13822,-0.0333 -4.67186,-0.36631 -1.43121,-0.38894 -2.71028,-1.06022 -3.93705,-1.89335 -1.19419,-0.96774 -2.19727,-2.1301 -2.66945,-3.62362 -0.32822,-1.56261 -0.31513,-3.1228 -0.25786,-4.71651 0.037,-1.62733 0.091,-3.26214 0.40292,-4.86455 0.31397,-1.44093 0.69138,-2.87509 1.13611,-4.27675 0.67909,-1.32742 1.32426,-2.69077 2.28134,-3.84921 0.5141,-1.60156 1.29802,-3.11048 1.62465,-4.77011 0.41,-1.55004 0.69719,-3.11054 0.96206,-4.69382 0.0393,-1.64682 0.10042,-3.3004 0.41946,-4.92138 0.35223,-1.64086 0.76979,-3.26288 1.13925,-4.89871 0.50993,-1.52461 1.05374,-3.04337 1.43597,-4.60423 0.10342,-0.3873 0.26224,-0.75965 0.34646,-1.15159 0.0342,-0.15931 -0.10328,-0.40917 0.0395,-0.48725 11.9087,-6.51288 12.03413,-9.27418 10.69292,-4.92095 -1.26127,1.39255 0.74471,-0.86233 -0.77007,1.01511 -0.60334,0.74779 -1.5124,1.18471 -2.14602,1.90982 -0.57298,0.31405 -1.04763,0.72132 -1.60841,1.05076 -3.06445,1.80024 -7.69933,5.20868 -11.897,6.7475 -1.60472,0.56416 -3.23738,0.89257 -4.95233,0.78048 -1.72717,0.002 -3.45425,0.0179 -5.18143,0.0131 -1.61174,-0.005 -3.22542,-0.007 -4.83379,-0.12448 -1.59634,-0.14423 -3.17513,-0.3961 -4.71883,-0.83969 -1.32979,-0.263 -2.63286,-0.58718 -3.92327,-1.00354 -1.40879,-0.35275 -2.70045,-0.96911 -4.04272,-1.51224 -1.22597,-0.56643 -2.40987,-1.19477 -3.57883,-1.87069 -0.3558,-0.2098 -0.98296,-0.67087 -1.43428,-0.65189 -0.0826,0.003 -0.25382,0.21051 -0.18296,0.16781 10.1072,-6.08942 13.79751,-5.43827 9.72882,-6.09861 -0.37168,0.90708 1.0968,2.74846 1.47648,3.61852 0.76562,1.21233 1.30383,2.50992 1.74033,3.87343 0.67647,1.49872 1.19044,3.0385 1.6072,4.62997 0.58505,1.59069 1.13305,3.18431 1.41067,4.86353 0.4275,1.62902 0.72959,3.27527 0.96017,4.94527 0.003,1.60977 0.01,3.21958 -0.002,4.82932 -0.0204,1.63061 -0.0469,3.26678 -0.28085,4.88368 -0.25406,1.51069 -0.70318,2.9641 -1.03001,4.45692 -0.46548,1.27727 -1.15645,2.50431 -1.91233,3.62439 -2.99815,4.21493 -7.97057,6.02219 -12.58959,8.44225 3.20832,-1.86133 6.41464,-3.7261 9.62495,-5.58396 0.18035,-0.10438 -0.35435,0.21952 -0.53497,0.3234 -3.57966,2.05886 -7.15057,4.13319 -10.74576,6.16472 -0.62915,0.35552 -1.37195,0.44512 -2.03545,0.7103 -1.40922,0.45581 -2.85773,0.75473 -4.3474,0.66999 -1.56156,-0.009 -3.13682,0.003 -4.67758,-0.28661 -1.35546,-0.3479 -2.50253,-0.93683 -3.31636,-2.12377 -0.88814,-1.05828 -1.6407,-2.2365 -2.14498,-3.52796 -0.56664,-1.23202 -1.09776,-2.48447 -1.45177,-3.79549 -0.44601,-1.56433 -0.67328,-3.24176 -0.74398,-4.86114 -4e-5,-1.60246 -9e-5,-3.20493 -1.3e-4,-4.8074 0,-1.60634 -1e-4,-3.21267 0.002,-4.81901 0.003,-1.73909 0.007,-3.47818 0.0152,-5.21724 0.009,-2.02866 0.0324,-4.0585 -0.0369,-6.08631 0,0 10.59916,-5.41038 10.59916,-5.41038 z"
       inkscape:connector-curvature="0" />
    <path
       style="opacity:0.12595418;fill:#333333;fill-opacity:1;stroke:#000000;stroke-width:0.80149698;stroke-linejoin:miter;stroke-miterlimit:4;stroke-opacity:0;stroke-dasharray:3.20598801, 1.602994, 0.801497, 1.602994;stroke-dashoffset:0"
       d="m 116.14858,906.05266 c -1.66656,-1.40487 -2.46375,-2.80074 -2.46375,-4.31402 0,-2.45825 0.94229,-3.52163 4.23029,-4.774 l 2.17586,-0.82878 0,5.99684 c 0,3.29827 -0.3327,5.99684 -0.73933,5.99684 -0.40662,0 -1.84801,-0.93459 -3.20307,-2.07688 z"
       id="path3039"
       inkscape:connector-curvature="0" />
    <path
       style="opacity:0.12595418;fill:#333333;fill-opacity:1;stroke:#000000;stroke-width:0.80149698;stroke-linejoin:miter;stroke-miterlimit:4;stroke-opacity:0;stroke-dasharray:3.20598801, 1.602994, 0.801497, 1.602994;stroke-dashoffset:0"
       d="m 116.78617,905.81858 c -3.03307,-2.3955 -3.38883,-4.69399 -1.08393,-7.00308 2.89684,-2.90211 4.40768,-2.51816 4.294,1.09123 -0.0521,1.65459 -0.32237,4.03547 -0.60058,5.29084 l -0.50583,2.28248 -2.10366,-1.66147 z"
       id="path3041"
       inkscape:connector-curvature="0" />
    <path
       style="opacity:0.12595418;fill:#333333;fill-opacity:1;stroke:#000000;stroke-width:0.80149698;stroke-linejoin:miter;stroke-miterlimit:4;stroke-opacity:0;stroke-dasharray:3.20598801, 1.602994, 0.801497, 1.602994;stroke-dashoffset:0"
       d="m 116.22673,904.66838 c -2.12559,-2.2667 -2.20531,-3.89159 -0.27673,-5.6401 2.57161,-2.3315 3.34021,-1.62173 3.34021,3.08457 0,2.42673 -0.29753,4.41224 -0.66118,4.41224 -0.36365,0 -1.4447,-0.83551 -2.4023,-1.85671 z"
       id="path3043"
       inkscape:connector-curvature="0" />
    <path
       style="opacity:0.12595418;fill:#333333;fill-opacity:1;stroke:#000000;stroke-width:0.80149698;stroke-linejoin:miter;stroke-miterlimit:4;stroke-opacity:0;stroke-dasharray:3.20598801, 1.602994, 0.801497, 1.602994;stroke-dashoffset:0"
       d="m 179.74826,938.7423 c -3.16257,-0.3484 -5.73832,-1.19643 -7.53664,-2.48133 l -2.73204,-1.95203 2.73204,-2.3025 c 2.22189,-1.87256 2.50774,-2.43084 1.53087,-2.9898 -0.66063,-0.37801 -2.61224,-1.81088 -4.33691,-3.18417 -1.72467,-1.37329 -3.8989,-2.68878 -4.83163,-2.9233 -1.58431,-0.39836 -1.66296,-0.78612 -1.19563,-5.89389 0.38873,-4.24878 1.17563,-6.6774 3.53035,-10.89567 3.89622,-6.97977 7.11928,-9.9955 16.29386,-15.24571 11.79815,-6.75157 15.93028,-6.6124 28.03222,0.94413 l 5.91203,3.69152 -2.4837,1.57541 c -1.36603,0.86649 -2.48369,1.87665 -2.48369,2.24481 0,0.36817 -0.74403,0.90597 -1.6534,1.19511 -1.60335,0.50982 -1.64234,0.93032 -1.28849,13.89246 0.20069,7.3517 0.49429,14.23066 0.65243,15.28656 0.25335,1.69152 -0.5344,2.34197 -6.62427,5.46969 -5.98922,3.07604 -7.69941,3.58646 -12.8123,3.82394 -3.24527,0.15072 -8.06257,0.0359 -10.7051,-0.25523 z m 23.64028,-6.55542 c 1.72137,-0.92293 3.1744,-5.39071 3.18101,-9.78088 0.003,-1.63427 -1.03918,-6.1971 -2.31476,-10.13963 -1.27557,-3.94251 -2.57566,-8.38142 -2.88907,-9.86421 -1.01906,-4.82122 -3.34084,-7.67112 -7.37007,-9.04651 -4.32028,-1.47474 -8.47031,-1.6338 -10.74916,-0.41198 -1.89941,1.01838 -8.06654,10.4209 -9.38123,14.3028 -1.15551,3.41186 -1.19567,10.49052 -0.0763,13.44017 1.08647,2.86284 5.95133,8.82141 8.21573,10.06277 3.6757,2.01505 18.4537,3.00847 21.3838,1.43747 l 0,0 z"
       id="path3047"
       inkscape:connector-curvature="0" />
    <path
       style="opacity:0.12595418;fill:#333333;fill-opacity:1;stroke:#000000;stroke-width:0.80149698;stroke-linejoin:miter;stroke-miterlimit:4;stroke-opacity:0;stroke-dasharray:3.20598801, 1.602994, 0.801497, 1.602994;stroke-dashoffset:0"
       d="m 186.5548,931.45696 c -3.5607,-0.70489 -6.22377,-2.48316 -9.01544,-6.0201 -3.02489,-3.83239 -3.79687,-6.19825 -3.79687,-11.63618 0,-3.71558 0.56027,-5.76633 2.78011,-10.17615 4.05035,-8.04622 6.85142,-10.73728 11.17614,-10.73728 7.32606,0 11.60138,3.41836 13.30588,10.6388 0.54564,2.31131 1.84178,6.83079 2.88034,10.0433 2.64711,8.18814 2.31381,16.03587 -0.76431,17.99669 -1.15559,0.73612 -12.6798,0.66024 -16.56585,-0.10908 z"
       id="path3049"
       inkscape:connector-curvature="0" />
    <path
       style="opacity:0.12595418;fill:#333333;fill-opacity:1;stroke:#000000;stroke-width:0.80149698;stroke-linejoin:miter;stroke-miterlimit:4;stroke-opacity:0;stroke-dasharray:3.20598801, 1.602994, 0.801497, 1.602994;stroke-dashoffset:0"
       d="m 265.23873,940.2659 c -1.86718,-0.30474 -4.29952,-1.40548 -5.40519,-2.4461 -1.77032,-1.66614 -2.01033,-2.55365 -2.01033,-7.43386 0,-4.41695 0.49271,-6.66647 2.42733,-11.08235 1.33503,-3.04728 2.79199,-7.62031 3.23769,-10.16228 0.44569,-2.54199 1.18722,-6.54505 1.64784,-8.89572 0.46063,-2.35065 0.6587,-4.45303 0.44019,-4.67194 -0.21851,-0.21892 -1.6019,0.25901 -3.07421,1.06204 -2.1617,1.17907 -4.33372,1.43962 -11.28518,1.3538 -4.73454,-0.0584 -8.60826,0.0107 -8.60826,0.15375 0,0.14301 0.57769,2.71919 1.28376,5.72484 1.63114,6.94358 1.11288,15.59961 -1.20671,20.15465 -1.93613,3.80204 -4.86798,6.1814 -12.08858,9.81057 -4.12972,2.07564 -6.15978,2.60843 -9.82667,2.579 -4.64629,-0.0372 -6.41189,-0.83358 -7.86038,-3.54503 -0.58666,-1.09818 -0.3672,-2.03062 0.87364,-3.71199 4.08188,-5.53108 4.32487,-12.57388 0.78781,-22.83394 -0.87523,-2.5388 -1.59131,-4.94611 -1.59131,-5.3496 0,-0.70913 4.87295,-4.07337 5.90009,-4.07337 0.27832,0 0.50605,5.17022 0.50605,11.48938 0,16.62751 2.39213,22.20412 9.5246,22.20412 3.64442,0 4.56696,-1.3805 5.70913,-8.54331 1.22904,-7.70741 -0.30798,-15.65047 -4.98894,-25.78211 -1.8665,-4.03993 -2.15306,-5.3218 -1.39438,-6.23762 0.5252,-0.634 1.46567,-1.15271 2.08992,-1.15271 0.62426,0 2.56204,-0.72934 4.30618,-1.62075 2.80016,-1.43113 3.17117,-1.46802 3.17117,-0.31529 0,0.77846 0.44475,1.1345 1.10171,0.88193 0.60594,-0.23293 3.5788,0.48374 6.60635,1.59262 3.81593,1.39762 7.85393,2.14974 13.16266,2.45167 l 7.65804,0.43553 4.85102,-3.31731 c 2.66806,-1.82452 5.21343,-3.3173 5.65635,-3.3173 0.45932,0 0.0307,2.8436 -0.99751,6.61836 -0.99156,3.64009 -2.17262,9.03469 -2.62459,11.98796 -0.45197,2.95328 -1.82415,7.46581 -3.04927,10.02782 -1.7869,3.73678 -2.23825,5.82847 -2.28173,10.57421 -0.0512,5.59325 0.0699,6.009 2.22074,7.62114 2.06482,1.54767 3.19763,1.69175 12.26402,1.55986 9.05924,-0.13178 9.89102,-0.0262 8.93582,1.13413 -0.93689,1.13808 -0.86001,1.17629 0.69583,0.34586 0.962,-0.51346 2.22322,-0.9162 2.80271,-0.89498 0.57947,0.0212 -1.08446,1.14348 -3.69765,2.49392 -3.794,1.96064 -6.29462,2.5936 -12.41191,3.14169 -8.54228,0.76537 -8.70006,0.76523 -13.45785,-0.0113 l 0,10e-6 z"
       id="path3051"
       inkscape:connector-curvature="0" />
    <path
       style="opacity:0.12595418;fill:#333333;fill-opacity:1;stroke:#000000;stroke-width:0.80149698;stroke-linejoin:miter;stroke-miterlimit:4;stroke-opacity:0;stroke-dasharray:3.20598801, 1.602994, 0.801497, 1.602994;stroke-dashoffset:0"
       d="m 142.51251,866.4138 c 0,-0.44123 0.38161,-0.80223 0.84802,-0.80223 0.46642,0 0.62533,0.361 0.35313,0.80223 -0.27219,0.44122 -0.65381,0.80222 -0.84803,0.80222 -0.19421,0 -0.35312,-0.361 -0.35312,-0.80222 z"
       id="path3053"
       inkscape:connector-curvature="0" />
    <path
       style="opacity:0.12595418;fill:#333333;fill-opacity:1;stroke:#000000;stroke-width:0.80149698;stroke-linejoin:miter;stroke-miterlimit:4;stroke-opacity:0;stroke-dasharray:3.20598801, 1.602994, 0.801497, 1.602994;stroke-dashoffset:0"
       d="m 129.22516,866.21324 c 1.45031,-3.19887 3.0738,-7.65495 3.60774,-9.90238 1.04331,-4.3914 5.93267,-11.15369 9.40854,-13.01262 1.14791,-0.61391 6.04847,-1.23923 11.73143,-1.49696 l 9.76001,-0.44263 2.25273,2.39602 c 2.53013,2.69106 3.02943,6.28002 1.31908,9.48163 -1.20917,2.26348 -16.66305,10.07923 -27.59487,13.95603 -3.52339,1.24951 -7.74587,2.84902 -9.38331,3.55444 -1.63744,0.70543 -3.14842,1.28261 -3.35771,1.28261 -0.20931,0 0.80606,-2.61727 2.25636,-5.81614 z"
       id="path3055"
       inkscape:connector-curvature="0" />
    <path
       style="opacity:0.12595418;fill:#333333;fill-opacity:1;stroke:#000000;stroke-width:0.80149698;stroke-linejoin:miter;stroke-miterlimit:4;stroke-opacity:0;stroke-dasharray:3.20598801, 1.602994, 0.801497, 1.602994;stroke-dashoffset:0"
       d="m 143.71366,902.3953 c -4.84465,-1.67235 -10.67759,-3.9543 -12.96209,-5.07101 -2.28449,-1.1167 -5.34742,-2.04108 -6.80653,-2.05419 -2.37046,-0.0213 -1.94292,-0.3755 4.01572,-3.32688 5.85999,-2.90253 7.33714,-3.30305 12.18194,-3.30305 7.12759,0 10.24628,2.11078 12.23548,8.28118 1.43212,4.4424 1.72846,7.70991 0.74452,8.20958 -0.33032,0.16775 -4.56439,-1.06329 -9.40904,-2.73563 z"
       id="path3057"
       inkscape:connector-curvature="0" />
    <path
       style="opacity:0.12595418;fill:#333333;fill-opacity:1;stroke:#000000;stroke-width:0.80149698;stroke-linejoin:miter;stroke-miterlimit:4;stroke-opacity:0;stroke-dasharray:3.20598801, 1.602994, 0.801497, 1.602994;stroke-dashoffset:0"
       d="m 161.31625,933.66508 c -1.75381,-1.32378 -4.81031,-3.24709 -6.79221,-4.27401 -1.9819,-1.02693 -6.66639,-4.07552 -10.40999,-6.77466 -3.7436,-2.69915 -10.49845,-6.79214 -15.0108,-9.09553 l -8.20426,-4.188 -0.004,-6.61837 c -0.004,-6.56642 0.0124,-6.61836 2.04555,-6.61836 1.18812,0 1.8372,-0.3436 1.54471,-0.81773 -0.28195,-0.45703 1.90482,-1.96094 4.95755,-3.40946 4.4276,-2.10089 6.45495,-2.5914 10.70492,-2.58996 8.11548,0.003 11.52319,3.17101 12.52499,11.64496 l 0.4657,3.93931 -5.91372,-1.87796 c -3.25255,-1.0329 -9.23334,-3.18601 -13.29065,-4.78469 -8.80142,-3.46799 -10.24193,-3.65719 -4.23422,-0.55616 5.00303,2.58243 20.9172,8.0784 23.39187,8.0784 1.50034,0 1.59409,-0.33381 1.11334,-3.96446 -0.72735,-5.49304 -2.39013,-9.11404 -5.31891,-11.58293 -2.21912,-1.87067 -3.17321,-2.10157 -8.68346,-2.10157 -5.46883,0 -6.83375,0.32425 -11.70921,2.7817 -3.03533,1.52994 -5.68722,2.61294 -5.89313,2.40668 -0.49189,-0.4928 -0.58103,-0.42443 5.89835,-4.52357 7.86843,-4.97792 13.85425,-7.08262 20.14312,-7.08262 5.58531,0 7.47016,0.66603 10.86828,3.84047 3.97294,3.71143 6.0916,15.05329 3.54054,18.95377 -1.18867,1.81746 -9.38925,6.15783 -13.59089,7.19334 -2.22676,0.54881 -2.1718,0.62238 3.60345,4.824 3.22559,2.34669 6.59141,4.64725 7.4796,5.11237 0.8882,0.46512 2.10273,2.23181 2.69898,3.92597 0.59624,1.69417 1.93215,4.21714 2.96868,5.60663 1.88083,2.52126 1.78698,2.99552 -0.89072,4.50104 -0.4483,0.25206 -2.25002,-0.62481 -4.00384,-1.9486 l 0,0 z"
       id="path3059"
       inkscape:connector-curvature="0" />
    <path
       style="opacity:0.12595418;fill:#333333;fill-opacity:1;stroke:#000000;stroke-width:0.80149698;stroke-linejoin:miter;stroke-miterlimit:4;stroke-opacity:0;stroke-dasharray:3.20598801, 1.602994, 0.801497, 1.602994;stroke-dashoffset:0"
       d="m 109.25875,929.17837 c 0.33655,-3.41421 0.68538,-6.92965 0.77515,-7.81211 0.0898,-0.88243 0.53686,-2.32645 0.99352,-3.20889 1.64899,-3.1865 1.83216,-6.83518 0.5346,-10.64903 -1.00463,-2.95285 -1.1842,-5.56475 -0.81212,-11.8133 0.49925,-8.38424 1.21415,-10.65676 7.95485,-25.28647 1.52887,-3.31817 3.04206,-7.28918 3.36266,-8.82447 1.35747,-6.50076 6.22882,-12.3397 15.55836,-18.64871 9.03416,-6.10926 13.25954,-7.5123 24.53094,-8.14553 9.21843,-0.51788 9.75455,-0.46053 12.41192,1.32798 1.77269,1.19309 3.18923,3.05337 3.91604,5.1428 1.06882,3.07259 1.01966,3.5138 -0.80078,7.18752 -1.62751,3.28442 -2.9055,4.48285 -7.94524,7.45063 -8.38194,4.93591 -34.69112,17.27015 -40.23393,18.86244 -2.87991,0.8273 -5.02865,1.98838 -5.7469,3.10533 -0.63095,0.98118 -1.39943,4.75242 -1.70774,8.38053 -0.44467,5.23267 -0.84664,6.68755 -1.94414,7.03652 -0.76096,0.24196 -2.69719,1.75594 -4.30273,3.36438 -3.84859,3.85561 -3.87219,6.4659 -0.0886,9.794 1.5568,1.36937 3.22916,2.48977 3.71633,2.48977 0.86327,0 0.66167,5.5863 -0.64082,17.75776 l -0.48381,4.52104 -4.82974,2.08772 -4.82974,2.08772 0.61191,-6.20763 z m 21.46377,-57.66257 c 2.29467,-1.16492 6.33659,-2.7475 8.98203,-3.51683 6.77049,-1.96898 26.54373,-11.73308 28.01124,-13.83207 1.92298,-2.75042 1.56832,-8.11851 -0.71171,-10.77236 -1.06358,-1.23798 -2.20611,-1.97869 -2.53893,-1.64602 -0.33281,0.33265 0.17151,1.43301 1.12071,2.44524 2.65089,2.82686 3.0072,6.18067 0.9368,8.81754 -1.64989,2.10132 -19.87466,11.79804 -22.17414,11.79804 -0.56939,0 -1.03524,0.28419 -1.03524,0.63152 0,0.34732 -0.6306,0.69169 -1.40135,0.76526 -0.77074,0.0736 -4.10394,1.19362 -7.40711,2.489 -3.30317,1.2954 -6.12474,2.24576 -6.27016,2.11193 -0.69922,-0.64356 6.79341,-18.83134 8.93169,-21.681 4.18186,-5.57312 5.19524,-6.00791 15.90024,-6.82196 5.34121,-0.40617 9.92615,-0.97129 10.18879,-1.25582 0.92552,-1.00275 -19.43781,0.60891 -21.55551,1.70601 -3.55675,1.84262 -8.0668,8.10627 -9.33218,12.96074 -0.63985,2.45472 -2.55954,7.49064 -4.26599,11.19097 -1.70644,3.70031 -2.75359,6.72784 -2.32698,6.72784 0.42661,0 2.65311,-0.95312 4.9478,-2.11803 z"
       id="path3063"
       inkscape:connector-curvature="0" />
    <path
       style="opacity:0.12595418;fill:#333333;fill-opacity:1;stroke:#000000;stroke-width:0.80149698;stroke-linejoin:miter;stroke-miterlimit:4;stroke-opacity:0;stroke-dasharray:3.20598801, 1.602994, 0.801497, 1.602994;stroke-dashoffset:0"
       d="m 109.20446,931.99576 c 0.21825,-1.43398 0.61544,-4.59275 0.88264,-7.01948 0.2672,-2.42673 1.03966,-6.03675 1.71656,-8.02225 1.04183,-3.0559 1.08067,-4.4194 0.25309,-8.8831 -0.54406,-2.93451 -0.82139,-8.62702 -0.62532,-12.83562 0.30071,-6.45472 0.79268,-8.62016 3.3585,-14.78256 1.65339,-3.97102 4.51347,-11.16887 6.35573,-15.99523 3.91155,-10.24754 7.47247,-14.72295 16.7324,-21.0296 9.5416,-6.49847 15.68582,-8.30094 28.29621,-8.30094 7.32935,0 9.7289,1.1577 11.5553,5.57503 2.4554,5.93863 -1.09765,11.04073 -11.63008,16.70063 -8.99204,4.83212 -28.51343,13.97415 -35.43488,16.59444 -3.32158,1.25747 -6.31984,2.95416 -6.94934,3.93256 -0.60896,0.94649 -1.49886,4.58431 -1.97756,8.08407 -0.47869,3.49974 -0.95496,6.40236 -1.05835,6.45024 -0.10339,0.0479 -1.52803,1.07501 -3.16584,2.28246 -2.06058,1.51912 -3.24593,3.19273 -3.84813,5.43321 -0.85292,3.17327 -0.80551,3.30082 2.37727,6.39521 3.63286,3.53198 3.74498,4.25436 2.71597,17.49883 l -0.52198,6.71849 -4.30067,1.90543 c -2.36536,1.04799 -4.48688,1.90541 -4.7145,1.90541 -0.22761,0 -0.23527,-1.17325 -0.0171,-2.60723 z M 137.8491,869.1185 c 14.47601,-5.69873 28.18225,-12.54235 29.82485,-14.89176 1.96027,-2.80375 1.62927,-8.1561 -0.66987,-10.8322 -2.56088,-2.98076 -3.50438,-1.86279 -1.36062,1.61221 3.59861,5.83326 1.6274,8.3669 -11.5957,14.90421 -4.80291,2.37449 -9.43226,4.67479 -10.28746,5.11179 -3.58765,1.83329 -14.86086,5.23579 -14.86086,4.48534 0,-1.41538 4.09154,-11.30048 7.01928,-16.95847 3.88588,-7.50961 5.36845,-8.38111 16.74741,-9.84463 5.20587,-0.66957 9.82555,-1.35653 10.26598,-1.52658 1.59824,-0.61707 -10.55257,-0.36515 -16.01538,0.33206 -5.3644,0.68465 -5.76581,0.88947 -9.33733,4.76493 -2.36113,2.56208 -4.23874,5.60471 -5.11169,8.2834 -0.75885,2.32861 -2.75558,7.57311 -4.43717,11.65444 -1.6816,4.08133 -2.74108,7.42059 -2.35442,7.42059 0.38667,0 5.86452,-2.0319 12.17298,-4.51533 z"
       id="path3065"
       inkscape:connector-curvature="0" />
    <path
       style="opacity:0.12595418;fill:#333333;fill-opacity:1;stroke:#000000;stroke-width:0.80149698;stroke-linejoin:miter;stroke-miterlimit:4;stroke-opacity:0;stroke-dasharray:3.20598801, 1.602994, 0.801497, 1.602994;stroke-dashoffset:0"
       d="m 130.13512,867.01547 c 1.06607,-3.54485 5.94051,-14.22264 7.94446,-17.40287 2.54135,-4.03307 4.93782,-5.04637 16.01135,-6.76998 4.82664,-0.75127 8.97062,-1.57816 9.20883,-1.83754 0.23822,-0.25937 -4.37284,-0.2848 -10.24681,-0.0565 -5.87395,0.22829 -10.37828,0.12066 -10.00961,-0.23919 3.18225,-3.10608 19.3965,-5.95072 27.1765,-4.76786 4.7595,0.72362 7.52649,3.56556 7.52649,7.73037 0,3.93328 -1.81365,6.63265 -6.80344,10.12594 -5.05018,3.53556 -5.9156,3.74231 -3.66466,0.87551 2.37787,-3.02847 2.24871,-8.34229 -0.27415,-11.27878 -2.39318,-2.78557 -3.42542,-2.0423 -1.72871,1.24476 1.86825,3.61937 1.5752,6.31486 -0.94191,8.6638 -4.22218,3.9401 -29.20798,15.51737 -33.48925,15.51737 -0.92529,0 -1.11029,-0.47094 -0.70909,-1.80501 z"
       id="path3067"
       inkscape:connector-curvature="0" />
    <path
       style="opacity:0.12595418;fill:#333333;fill-opacity:1;stroke:#000000;stroke-width:0.80149698;stroke-linejoin:miter;stroke-miterlimit:4;stroke-opacity:0;stroke-dasharray:3.20598801, 1.602994, 0.801497, 1.602994;stroke-dashoffset:0"
       d="m 86.828115,928.92908 c -7.752625,-1.01326 -13.181718,-5.60109 -13.181718,-11.13916 0,-3.23932 1.957128,-5.34017 7.767721,-8.33814 3.438062,-1.77386 4.29724,-1.6422 1.841501,0.28221 -1.10106,0.86283 -1.551492,1.57681 -1.000965,1.58662 0.550534,0.01 1.000965,0.72285 1.000965,1.58454 0,4.53615 5.628143,9.00774 12.7795,10.15336 4.292341,0.68763 5.638181,-0.72297 5.638181,-5.90944 0,-4.21517 -0.8032,-5.88628 -5.116667,-10.64551 -1.810269,-1.99735 -5.00267,-5.87812 -7.094225,-8.62394 -2.091547,-2.7458 -4.088801,-4.99237 -4.438333,-4.99237 -0.349541,0 -1.090589,1.71476 -1.646795,3.81058 -1.880769,7.08694 -9.845167,17.53792 -14.787825,19.40477 -2.592848,0.97932 -5.425264,1.14436 -4.075409,0.23748 1.597778,-1.07347 7.508877,-10.35265 8.612473,-13.51978 0.59682,-1.71277 1.540079,-5.55521 2.096131,-8.53875 1.267541,-6.80107 2.777887,-8.72987 8.311454,-10.61421 l 4.402953,-1.49934 4.45739,3.44511 c 2.451566,1.89481 6.234069,5.84089 8.405573,8.76908 2.17151,2.92819 5.05807,6.38427 6.41458,7.68019 2.39409,2.28715 2.46638,2.56569 2.46638,9.50288 0,8.65457 -0.96265,10.38673 -7.80213,14.03877 -5.824708,3.11018 -9.865124,4.0028 -15.050735,3.32505 z"
       id="path3069"
       inkscape:connector-curvature="0" />
    <path
       style="opacity:0.12595418;fill:#333333;fill-opacity:1;stroke:#000000;stroke-width:0.80149698;stroke-linejoin:miter;stroke-miterlimit:4;stroke-opacity:0;stroke-dasharray:3.20598801, 1.602994, 0.801497, 1.602994;stroke-dashoffset:0"
       d="m 83.77871,927.96705 c -3.650279,-1.07242 -9.211615,-5.93205 -9.390039,-8.20523 -0.326398,-4.1585 0.175802,-5.28954 3.381716,-7.61612 3.667834,-2.66181 4.40884,-2.89719 4.435504,-1.40892 0.0437,2.43951 2.704663,6.97421 5.168799,8.8085 4.701686,3.49988 11.290618,4.91467 13.33769,2.86389 0.5285,-0.52948 0.96092,-2.8141 0.96092,-5.07694 0,-3.24598 -0.50628,-4.86282 -2.398946,-7.66125 -3.193514,-4.72184 -12.976073,-16.18119 -14.139106,-16.56265 -0.514504,-0.16876 -1.510253,1.46831 -2.249682,3.69855 -2.714859,8.18857 -11.877086,19.34492 -15.887137,19.34492 -1.460453,0 -1.476698,-0.10982 -0.267045,-1.80502 3.610067,-5.05906 6.873902,-12.06077 8.133543,-17.44841 2.271667,-9.7162 3.087885,-10.79629 10.006763,-13.24186 3.131087,-1.10672 3.144658,-1.10245 7.161399,2.25595 2.213405,1.85063 6.868693,6.75798 10.345101,10.90522 7.02227,8.37738 7.82566,10.77414 6.45081,19.24442 -0.85557,5.27111 -2.05233,6.67349 -8.29859,9.72442 -5.529587,2.70088 -12.078822,3.55337 -16.7517,2.18053 l 0,0 z"
       id="path3071"
       inkscape:connector-curvature="0" />
    <path
       style="opacity:0.12595418;fill:#333333;fill-opacity:1;stroke:#000000;stroke-width:0.80149698;stroke-linejoin:miter;stroke-miterlimit:4;stroke-opacity:0;stroke-dasharray:3.20598801, 1.602994, 0.801497, 1.602994;stroke-dashoffset:0"
       d="m 49.222943,924.40701 c -1.748904,-0.41843 -7.6073,-5.7311 -7.6073,-6.89867 0,-0.39848 0.892783,-1.42805 1.983964,-2.28794 1.980956,-1.56105 4.357534,-7.83252 4.49029,-11.84927 0.0443,-1.34109 0.425207,-0.66005 1.090915,1.95062 0.562547,2.20612 1.398078,4.93598 1.856727,6.06633 1.07568,2.65106 6.210892,7.1704 8.147542,7.1704 1.31249,0 1.383529,0.25087 0.57271,2.02261 -0.653722,1.42848 -2.085619,2.37108 -4.87461,3.2089 -2.171951,0.65247 -3.973678,1.14441 -4.003846,1.09324 -0.03016,-0.0512 -0.775545,-0.26548 -1.656392,-0.47622 z"
       id="path3073"
       inkscape:connector-curvature="0" />
    <path
       style="opacity:0.12595418;fill:#b3b3b3;fill-opacity:1;stroke:#000000;stroke-width:0.80149698;stroke-linejoin:miter;stroke-miterlimit:4;stroke-opacity:0;stroke-dasharray:3.20598801, 1.602994, 0.801497, 1.602994;stroke-dashoffset:0"
       d="m 130.50098,867.36365 c 0,-0.75906 2.07199,-5.52506 4.60442,-10.59113 5.44128,-10.88514 5.71552,-11.07989 19.44159,-13.80507 l 9.18589,-1.82377 -10.00961,-0.40111 -10.00961,-0.40111 4.40423,-1.45344 c 5.68266,-1.87535 17.99273,-3.36773 21.83005,-2.64654 4.62747,0.8697 7.21602,3.54819 7.21602,7.46674 0,4.1862 -4.04265,9.42213 -8.63913,11.18917 -1.18003,0.45365 -1.24815,0.29146 -0.48088,-1.14483 1.58101,-2.95952 1.08676,-7.88272 -1.03987,-10.35802 -2.52665,-2.94092 -3.26848,-2.04775 -1.8329,2.20684 1.51701,4.4959 1.01333,5.98654 -2.94126,8.7048 -5.81426,3.99652 -20.76027,11.06182 -28.32568,13.39016 -3.09014,0.95103 -3.40326,0.92042 -3.40326,-0.33269 z"
       id="path3077"
       inkscape:connector-curvature="0" />
    <path
       style="opacity:0.12595418;fill:#b3b3b3;fill-opacity:1;stroke:#000000;stroke-width:0.80149698;stroke-linejoin:miter;stroke-miterlimit:4;stroke-opacity:0;stroke-dasharray:3.20598801, 1.602994, 0.801497, 1.602994;stroke-dashoffset:0"
       d="m 130.50098,867.36365 c 0,-0.75906 2.07199,-5.52506 4.60442,-10.59113 5.44128,-10.88514 5.71552,-11.07989 19.44159,-13.80507 l 9.18589,-1.82377 -10.00961,-0.40111 -10.00961,-0.40111 4.40423,-1.45344 c 5.68266,-1.87535 17.99273,-3.36773 21.83005,-2.64654 4.62747,0.8697 7.21602,3.54819 7.21602,7.46674 0,3.72068 -1.58644,6.22047 -5.93508,9.35201 -3.50668,2.52524 -4.23528,2.65851 -3.11994,0.57069 1.522,-2.84905 0.98751,-7.80094 -1.10486,-10.23638 -2.53643,-2.95229 -3.26714,-2.04377 -1.81578,2.2576 0.64953,1.92494 0.91108,4.18367 0.58958,5.09131 -1.08088,3.05139 -21.123,13.72333 -31.87364,16.9719 -3.08279,0.93154 -3.40326,0.89843 -3.40326,-0.3517 z"
       id="path3079"
       inkscape:connector-curvature="0" />
    <path
       style="opacity:0.12595418;fill:#b3b3b3;fill-opacity:1;stroke:#000000;stroke-width:0.80149698;stroke-linejoin:miter;stroke-miterlimit:4;stroke-opacity:0;stroke-dasharray:3.20598801, 1.602994, 0.801497, 1.602994;stroke-dashoffset:0"
       d="m 130.8027,867.64885 c -0.22757,-0.59414 0.35774,-2.64932 1.3007,-4.5671 0.94296,-1.91778 1.86546,-4.20769 2.05001,-5.08868 0.18455,-0.88099 0.7017,-1.72407 1.14924,-1.87352 0.44752,-0.14946 0.61,-0.60189 0.36105,-1.00543 -0.24895,-0.40355 -0.0497,-0.73371 0.44266,-0.73371 0.49241,0 0.6916,-0.33017 0.44266,-0.73371 -0.24895,-0.40354 -0.18013,-0.85479 0.15292,-1.00278 0.33306,-0.148 1.61487,-1.62283 2.84844,-3.27742 1.23358,-1.6546 2.76504,-3.00834 3.40327,-3.00834 0.63821,0 1.1604,-0.30084 1.1604,-0.66853 0,-0.36768 0.45043,-0.70476 1.00096,-0.74905 0.55052,-0.0443 4.96476,-0.91671 9.80942,-1.93871 l 8.80845,-1.85819 -8.00768,-0.21324 c -8.94994,-0.23833 -11.06012,-0.64609 -9.22464,-1.78255 0.62726,-0.38838 1.44373,-0.51837 1.81437,-0.28889 0.37064,0.22949 1.12303,0.0438 1.67197,-0.4126 1.77474,-1.47559 19.00428,-2.81333 22.06191,-1.71296 2.08119,0.74898 4.6468,3.60445 5.1739,5.75846 0.87578,3.57883 -1.0373,6.95163 -6.1907,10.91437 -2.84691,2.18914 -4.02072,2.27936 -2.92307,0.22465 1.522,-2.84905 0.98751,-7.80094 -1.10486,-10.23638 -2.5146,-2.92688 -3.22361,-2.09628 -1.78396,2.08991 0.63216,1.8382 0.97852,3.96004 0.76967,4.71518 -0.59762,2.16098 -6.27927,5.93454 -16.27036,10.80625 -12.13486,5.91703 -18.35775,8.10231 -18.91673,6.64297 z"
       id="path3081"
       inkscape:connector-curvature="0" />
    <path
       style="opacity:0.12595418;fill:#b3b3b3;fill-opacity:1;stroke:#000000;stroke-width:0.80149698;stroke-linejoin:miter;stroke-miterlimit:4;stroke-opacity:0;stroke-dasharray:3.20598801, 1.602994, 0.801497, 1.602994;stroke-dashoffset:0"
       d="m 131.12124,868.37224 c -0.74649,-0.74785 0.77495,-6.01596 2.18975,-7.58213 0.74289,-0.82238 1.11398,-1.87899 0.82463,-2.34802 -0.28935,-0.46903 -0.12321,-0.85278 0.3692,-0.85278 0.4924,0 0.69592,-0.32318 0.45224,-0.71816 -0.24367,-0.39499 0.1328,-0.93955 0.8366,-1.21011 0.72959,-0.28047 1.08262,-1.00628 0.8213,-1.68851 -0.25209,-0.65811 -0.0493,-1.19658 0.45077,-1.19658 0.49999,0 0.70489,-0.20457 0.45531,-0.45459 -0.57325,-0.5743 6.01208,-7.00179 7.59397,-7.41194 0.33031,-0.0857 0.69066,-0.1806 0.80077,-0.211 0.1101,-0.0304 1.10105,-0.20471 2.20211,-0.38735 1.10106,-0.18264 2.90278,-0.50819 4.00384,-0.72346 1.10107,-0.21526 4.11611,-0.80611 6.70011,-1.31301 5.13346,-1.00703 6.0754,-0.5313 6.09994,3.08077 0.007,0.99275 0.3726,1.805 0.81302,1.805 1.76774,0 0.64395,3.18967 -1.80173,5.11387 -1.43137,1.12616 -3.2331,2.60226 -4.00384,3.28021 -0.77073,0.67796 -1.40134,1.00793 -1.40134,0.73329 0,-0.27463 -0.45043,-0.13033 -1.00097,0.32068 -0.55053,0.45101 -4.0639,2.33176 -7.80749,4.17943 -3.7436,1.84768 -7.79749,3.8898 -9.00866,4.53803 -1.21116,0.64825 -2.2021,0.96844 -2.2021,0.71156 0,-0.25689 -1.08105,0.093 -2.40231,0.77747 -1.32126,0.6845 -2.40231,1.01056 -2.40231,0.7246 0,-0.28597 -0.48359,-0.11787 -1.07463,0.37355 -0.59106,0.49143 -1.26973,0.69806 -1.50818,0.45918 z"
       id="path3083"
       inkscape:connector-curvature="0" />
    <path
       style="opacity:0.12595418;fill:#b3b3b3;fill-opacity:1;stroke:#000000;stroke-width:0.80149698;stroke-linejoin:miter;stroke-miterlimit:4;stroke-opacity:0;stroke-dasharray:3.20598801, 1.602994, 0.801497, 1.602994;stroke-dashoffset:0"
       d="m 130.98671,868.1566 c -0.56174,-0.91056 0.96008,-6.36506 1.94623,-6.97563 0.42411,-0.26259 0.77111,-1.15236 0.77111,-1.97724 0,-0.82491 0.45043,-1.98545 1.00096,-2.579 0.55053,-0.59355 1.11994,-1.60867 1.26536,-2.25583 0.14542,-0.64716 0.68594,-1.44528 1.20116,-1.77362 0.51521,-0.32835 0.6785,-0.60251 0.36286,-0.60927 -0.90672,-0.0194 6.29642,-6.74363 7.58062,-7.07659 0.76941,-0.1995 1.25508,-0.32104 2.00192,-0.50098 0.33031,-0.0796 4.15222,-0.80601 8.4931,-1.61425 8.73033,-1.62553 8.37268,-1.75463 10.15869,3.66693 0.99083,3.00771 0.93827,3.24 -1.25117,5.52944 -1.25701,1.31441 -2.77982,2.38985 -3.38405,2.38985 -0.60423,0 -0.8759,0.361 -0.60369,0.80222 0.40454,0.65576 -0.66892,1.16558 -1.40135,0.66556 -0.1101,-0.0752 -1.64158,0.74776 -3.40326,1.82873 -6.46053,3.96417 -17.84949,9.07761 -22.02115,9.88709 -0.22022,0.0427 -0.82592,0.3488 -1.34601,0.68016 -0.5201,0.33137 -1.13719,0.29195 -1.37133,-0.0876 z"
       id="path3085"
       inkscape:connector-curvature="0" />
    <path
       style="opacity:0.12595418;fill:#b3b3b3;fill-opacity:1;stroke:#000000;stroke-width:0.80149698;stroke-linejoin:miter;stroke-miterlimit:4;stroke-opacity:0;stroke-dasharray:3.20598801, 1.602994, 0.801497, 1.602994;stroke-dashoffset:0"
       d="m 130.80104,867.64452 c -0.52998,-1.38365 5.21511,-14.86857 6.33458,-14.86857 0.46156,0 0.64639,-0.19317 0.41071,-0.42926 -0.4239,-0.42468 2.2563,-3.46956 5.45139,-6.1931 1.365,-1.16356 16.30079,-4.60879 19.98005,-4.60879 1.49314,0 3.80223,6.86832 2.88535,8.58235 -1.54382,2.88606 -5.52794,5.5981 -15.34293,10.44412 -12.73583,6.28816 -19.13996,8.58532 -19.71915,7.07325 z"
       id="path3087"
       inkscape:connector-curvature="0" />
    <path
       style="opacity:0.12595418;fill:#b3b3b3;fill-opacity:1;stroke:#000000;stroke-width:0.80149698;stroke-linejoin:miter;stroke-miterlimit:4;stroke-opacity:0;stroke-dasharray:3.20598801, 1.602994, 0.801497, 1.602994;stroke-dashoffset:0"
       d="m 131.30175,866.43525 c 0,-1.41993 0.50166,-3.53989 1.11481,-4.71104 0.61314,-1.17113 1.74891,-3.66359 2.52391,-5.5388 0.77502,-1.8752 1.77479,-3.40946 2.22173,-3.40946 0.44695,0 0.60345,-0.20955 0.34779,-0.46567 -0.25565,-0.25612 1.03559,-1.79037 2.86943,-3.40946 1.83383,-1.61908 3.55471,-3.24537 3.82416,-3.61397 0.26944,-0.3686 0.71988,-0.63935 1.00096,-0.60167 0.49915,0.067 0.67839,0.0393 1.91239,-0.29451 0.83145,-0.22493 5.71324,-1.15797 8.60827,-1.64526 8.88037,-1.49475 7.97746,-1.67924 9.38799,1.91818 0.7063,1.8013 1.21388,3.75497 1.12795,4.34147 -0.22849,1.5596 -3.15803,4.93492 -4.52962,5.21888 -0.64994,0.13456 -1.63214,0.8353 -2.18267,1.55723 -0.55053,0.72192 -1.00096,1.01887 -1.00096,0.6599 0,-0.35896 -0.45043,-0.28187 -1.00097,0.17132 -1.69809,1.39787 -16.99059,9.00909 -18.80408,9.35897 -0.94148,0.18165 -2.45585,0.72921 -3.36528,1.2168 -0.90943,0.4876 -1.65351,0.64913 -1.65351,0.35897 0,-0.29016 -0.54052,-0.0782 -1.20115,0.47112 -1.02537,0.85254 -1.20115,0.62087 -1.20115,-1.583 z"
       id="path3089"
       inkscape:connector-curvature="0" />
    <path
       style="opacity:0.12595418;fill:#b3b3b3;fill-opacity:1;stroke:#000000;stroke-width:0.80149698;stroke-linejoin:miter;stroke-miterlimit:4;stroke-opacity:0;stroke-dasharray:3.20598801, 1.602994, 0.801497, 1.602994;stroke-dashoffset:0"
       d="m 131.30175,866.5282 c 0,-2.63601 4.66553,-13.75225 5.77186,-13.75225 0.40085,0 0.50609,-0.36099 0.2339,-0.80222 -0.2722,-0.44123 -0.17334,-0.80222 0.21966,-0.80222 0.39302,0 2.06587,-1.35376 3.71745,-3.00835 1.65159,-1.6546 3.3332,-3.05347 3.73693,-3.10864 0.40371,-0.0552 0.82412,-0.17301 0.93423,-0.26193 0.30623,-0.24728 1.99476,-0.61196 9.61988,-2.07765 7.98104,-1.5341 8.56063,-1.33057 10.1762,3.57354 0.96989,2.94416 0.90996,3.32911 -0.86902,5.58269 -1.0509,1.33125 -2.52343,2.44044 -3.27228,2.46485 -0.74885,0.0244 -1.72886,0.67614 -2.17777,1.44828 -0.44891,0.77215 -0.82715,1.12861 -0.84055,0.79217 -0.0134,-0.33645 -1.37566,0.21918 -3.02724,1.23473 -4.18558,2.57373 -14.81682,7.7731 -16.67514,8.15527 -0.8483,0.17444 -2.89364,0.8928 -4.54523,1.59635 l -3.00288,1.27919 0,-2.31381 z"
       id="path3091"
       inkscape:connector-curvature="0" />
    <path
       style="opacity:0.12595418;fill:#b3b3b3;fill-opacity:1;stroke:#000000;stroke-width:0.80149698;stroke-linejoin:miter;stroke-miterlimit:4;stroke-opacity:0;stroke-dasharray:3.20598801, 1.602994, 0.801497, 1.602994;stroke-dashoffset:0"
       d="m 131.30175,866.28941 c 0,-1.50014 0.56094,-3.52985 1.24655,-4.51048 0.68561,-0.98062 1.0367,-1.78294 0.78022,-1.78294 -0.57758,0 1.96504,-5.06043 2.82537,-5.62318 0.34365,-0.22478 0.74381,-0.91246 0.88922,-1.52817 0.53203,-2.25262 8.79445,-8.74084 10.50664,-8.25055 0.34816,0.0997 1.26588,-0.15804 2.03937,-0.57275 0.7735,-0.41473 3.01106,-0.96064 4.97238,-1.21316 1.9613,-0.25252 4.71674,-0.65855 6.1232,-0.90228 2.0934,-0.36276 2.78786,-0.0905 3.82877,1.50101 2.05711,3.14525 2.0898,6.33018 0.0881,8.58135 -0.97372,1.09508 -2.22392,2.08991 -2.77823,2.21074 -1.58855,0.34631 -4.897,2.69915 -4.897,3.48258 0,0.39047 -0.27025,0.63843 -0.60057,0.55102 -1.12647,-0.29812 -4.20404,1.067 -4.20404,1.8648 0,0.43752 -0.36035,0.5724 -0.80077,0.29971 -0.44042,-0.2727 -0.80077,-0.0922 -0.80077,0.4011 0,0.49331 -0.36034,0.67381 -0.80077,0.40111 -0.44042,-0.27269 -0.80076,-0.0533 -0.80076,0.48748 0,0.5408 -0.23339,0.74947 -0.51863,0.4637 -0.28524,-0.28576 -1.81672,0.16378 -3.40326,0.99897 -3.48312,1.83359 -5.87882,2.76113 -6.68829,2.58946 -0.33033,-0.07 -0.60059,0.25495 -0.60059,0.72222 0,0.46726 -0.33545,0.64186 -0.74543,0.38801 -0.40999,-0.25385 -0.97541,-0.0888 -1.25649,0.36686 -0.28108,0.45562 -0.86228,0.61092 -1.29155,0.34514 -0.4293,-0.2658 -1.30525,-0.047 -1.94659,0.48625 -0.98204,0.8165 -1.16608,0.53904 -1.16608,-1.758 z"
       id="path3093"
       inkscape:connector-curvature="0" />
    <path
       style="opacity:0.12595418;fill:#b3b3b3;fill-opacity:1;stroke:#000000;stroke-width:0.80149698;stroke-linejoin:miter;stroke-miterlimit:4;stroke-opacity:0;stroke-dasharray:3.20598801, 1.602994, 0.801497, 1.602994;stroke-dashoffset:0"
       d="m 131.30175,866.43667 c 0,-2.43046 3.49549,-11.24571 4.77283,-12.03659 0.38728,-0.23979 0.82312,-0.93973 0.96853,-1.55544 0.4948,-2.09504 7.68241,-7.8903 10.67439,-8.6066 5.70052,-1.36476 14.37841,-2.7246 15.24965,-2.38967 1.25449,0.48226 3.52895,5.41631 3.28003,7.11542 -0.23127,1.57866 -3.40759,5.45763 -3.99069,4.87348 -0.26831,-0.2688 -0.71425,0.10237 -0.99098,0.82482 -0.27673,0.72245 -0.81258,1.12196 -1.19079,0.88779 -0.37821,-0.23417 -1.36144,0.21915 -2.18493,1.00739 -0.82352,0.78824 -2.00778,1.55183 -2.63171,1.69689 -0.62393,0.14505 -1.70418,0.77759 -2.40056,1.40565 -0.69637,0.62805 -1.50716,0.90044 -1.80173,0.60533 -0.29458,-0.2951 -0.5356,-0.0941 -0.5356,0.44672 0,0.54079 -0.36034,0.76016 -0.80076,0.48746 -0.44043,-0.27269 -0.80077,-0.0533 -0.80077,0.48748 0,0.5408 -0.20307,0.77984 -0.45126,0.53119 -0.2482,-0.24865 -2.47888,0.57253 -4.95706,1.82483 -2.47818,1.25229 -4.79754,2.09625 -5.15411,1.87548 -0.35659,-0.22078 -0.64834,0.003 -0.64834,0.4955 0,0.4933 -0.33544,0.68921 -0.74543,0.43536 -0.40999,-0.25385 -0.96205,-0.11042 -1.2268,0.31874 -0.26475,0.42914 -1.01034,0.57692 -1.65687,0.32837 -0.64653,-0.24855 -1.17551,-0.0523 -1.17551,0.43615 0,0.48843 -0.36035,0.88806 -0.80076,0.88806 -0.44042,0 -0.80077,-1.07272 -0.80077,-2.38381 z"
       id="path3095"
       inkscape:connector-curvature="0" />
    <path
       style="opacity:0.12595418;fill:#b3b3b3;fill-opacity:1;stroke:#000000;stroke-width:0.80149698;stroke-linejoin:miter;stroke-miterlimit:4;stroke-opacity:0;stroke-dasharray:3.20598801, 1.602994, 0.801497, 1.602994;stroke-dashoffset:0"
       d="m 150.11981,926.10092 c -7.9276,-5.11402 -17.74703,-11.10034 -21.82095,-13.30293 -7.27289,-3.93213 -7.40694,-4.05796 -7.39829,-6.94381 0.0153,-5.10395 0.97202,-9.07549 2.30938,-9.58677 0.70689,-0.27024 1.98297,-1.14056 2.83573,-1.93402 5.25072,-4.8856 18.60768,-6.08385 22.65206,-2.03211 1.81695,1.82025 4.72282,10.78336 3.79677,11.71109 -0.28404,0.28455 -16.38487,-5.18524 -24.7274,-8.40041 -3.25588,-1.2548 -0.23484,1.44476 3.42266,3.05844 6.00929,2.65127 19.38986,7.05246 21.44101,7.05246 1.61054,0 1.89326,-0.39794 1.89326,-2.66488 0,-4.42196 -2.33012,-9.94102 -5.29993,-12.55331 -2.54733,-2.24064 -3.2298,-2.43077 -8.72518,-2.43077 -3.63532,0 -7.23089,0.50875 -9.21421,1.30376 -4.45322,1.78507 -4.80209,0.93054 -0.61972,-1.51791 5.15752,-3.01933 9.12997,-4.51332 14.15757,-5.32446 8.16119,-1.31671 13.63033,0.81468 16.5592,6.45333 1.3853,2.66699 2.64451,10.51544 2.12441,13.24114 -0.45211,2.36937 -5.62731,6 -11.58463,8.12713 -2.09202,0.74698 -3.80366,1.57148 -3.80366,1.83224 0,0.73542 3.14322,3.38718 8.40808,7.09344 2.64253,1.86026 5.45314,4.5341 6.24578,5.94189 1.40918,2.5028 1.43105,2.51065 0.9857,0.35349 -0.25051,-1.21336 -0.14692,-2.20612 0.2302,-2.20612 0.37712,0 2.76461,1.49141 5.30554,3.31424 l 4.61987,3.31424 -2.58061,1.6369 -2.5806,1.63689 -1.49072,-1.94278 c -1.51524,-1.97476 -2.1161,-1.31138 -0.7591,0.83809 0.70665,1.11934 -0.25496,3.24009 -1.46585,3.23277 -0.27639,-0.002 -6.98876,-4.18724 -14.91637,-9.30126 z"
       id="path3097"
       inkscape:connector-curvature="0" />
    <path
       style="opacity:0.12595418;fill:#b3b3b3;fill-opacity:1;stroke:#000000;stroke-width:0.80149698;stroke-linejoin:miter;stroke-miterlimit:4;stroke-opacity:0;stroke-dasharray:3.20598801, 1.602994, 0.801497, 1.602994;stroke-dashoffset:0"
       d="m 183.65914,929.85935 c -3.11869,-1.41884 -6.14022,-4.61216 -8.26467,-8.73459 -0.52322,-1.01527 -0.95131,-4.13824 -0.95131,-6.93994 0,-4.21067 0.479,-6.04685 2.76224,-10.58904 3.12204,-6.21081 6.36261,-9.86598 8.85801,-9.99131 5.98087,-0.30038 10.02281,1.20483 12.20828,4.54637 2.30963,3.53134 6.70078,20.14006 6.70078,25.34444 0,7.69385 -0.25959,7.90182 -9.83759,7.8812 -6.25117,-0.0135 -8.95681,-0.37117 -11.47574,-1.51713 z"
       id="path3099"
       inkscape:connector-curvature="0" />
    <path
       style="opacity:0.12595418;fill:#b3b3b3;fill-opacity:1;stroke:#000000;stroke-width:0.80149698;stroke-linejoin:miter;stroke-miterlimit:4;stroke-opacity:0;stroke-dasharray:3.20598801, 1.602994, 0.801497, 1.602994;stroke-dashoffset:0"
       d="m 187.35678,930.55094 c -4.16058,-0.86127 -6.53474,-2.45854 -9.96448,-6.7038 -2.25939,-2.79664 -2.44733,-3.50572 -2.43156,-9.1737 0.0145,-5.19376 0.38561,-6.87894 2.40231,-10.90768 3.46256,-6.91711 6.6828,-10.07629 10.27105,-10.07629 4.7265,0 8.87155,2.11395 10.76582,5.49048 2.09535,3.73496 5.56202,16.88834 6.21818,23.59324 0.70045,7.15766 -0.20613,8.13158 -7.77467,8.35205 -3.23642,0.0943 -7.50542,-0.16416 -9.48665,-0.5743 l 0,0 z"
       id="path3101"
       inkscape:connector-curvature="0" />
    <path
       style="opacity:0.12595418;fill:#b3b3b3;fill-opacity:1;stroke:#000000;stroke-width:0.80149698;stroke-linejoin:miter;stroke-miterlimit:4;stroke-opacity:0;stroke-dasharray:3.20598801, 1.602994, 0.801497, 1.602994;stroke-dashoffset:0"
       d="m 184.55287,929.39871 c -2.90854,-1.36855 -4.14739,-2.40885 -7.01164,-5.88787 -1.96655,-2.38863 -2.1972,-3.30466 -2.1972,-8.72605 0,-5.14639 0.37154,-6.81333 2.47077,-11.08522 3.47562,-7.07286 6.33211,-9.62867 10.65706,-9.53533 7.31482,0.15789 10.26431,3.93571 13.71619,17.56815 2.12811,8.40452 2.58132,16.33537 1.02273,17.89681 -1.38792,1.39044 -15.58574,1.21505 -18.65791,-0.23049 z"
       id="path3103"
       inkscape:connector-curvature="0" />
    <path
       style="opacity:0.12595418;fill:#b3b3b3;fill-opacity:1;stroke:#000000;stroke-width:0.80149698;stroke-linejoin:miter;stroke-miterlimit:4;stroke-opacity:0;stroke-dasharray:3.20598801, 1.602994, 0.801497, 1.602994;stroke-dashoffset:0"
       d="m 186.95518,929.89262 c -3.63458,-0.948 -5.53902,-2.16639 -8.28668,-5.30151 -3.08115,-3.51562 -3.653,-5.66263 -3.10902,-11.67276 0.51518,-5.69171 3.40726,-12.30583 6.91934,-15.8243 4.84842,-4.85724 12.63847,-2.92115 15.96763,3.96851 3.61323,7.47752 6.82187,25.23739 5.03425,27.86463 -0.89726,1.31866 -12.55917,1.99996 -16.52552,0.96543 z"
       id="path3105"
       inkscape:connector-curvature="0" />
    <path
       style="opacity:0.12595418;fill:#b3b3b3;fill-opacity:1;stroke:#000000;stroke-width:0.80149698;stroke-linejoin:miter;stroke-miterlimit:4;stroke-opacity:0;stroke-dasharray:3.20598801, 1.602994, 0.801497, 1.602994;stroke-dashoffset:0"
       d="m 184.55287,928.64946 c -3.69088,-1.65529 -7.64689,-6.29954 -8.46208,-9.93428 -2.16708,-9.66249 5.567,-24.22347 12.86631,-24.22347 3.26315,0 7.39487,3.18871 9.36448,7.22716 4.15685,8.52312 6.6211,26.49266 3.78271,27.58383 -2.38181,0.91564 -15.10942,0.44194 -17.55142,-0.65324 z"
       id="path3107"
       inkscape:connector-curvature="0" />
    <path
       style="opacity:0.12595418;fill:#b3b3b3;fill-opacity:1;stroke:#000000;stroke-width:0.80149698;stroke-linejoin:miter;stroke-miterlimit:4;stroke-opacity:0;stroke-dasharray:3.20598801, 1.602994, 0.801497, 1.602994;stroke-dashoffset:0"
       d="m 186.61352,929.14851 c -2.8503,-0.45446 -5.59955,-2.49238 -8.18385,-6.06639 -1.88881,-2.61217 -2.28487,-3.96819 -2.28487,-7.82282 0,-6.07541 2.59556,-12.95722 6.44715,-17.09383 2.5612,-2.75076 3.49979,-3.2362 6.25713,-3.2362 3.54494,0 7.18117,2.70982 9.43305,7.02977 1.81861,3.48881 4.30048,13.98053 4.80992,20.33317 0.42434,5.29169 0.32634,5.81108 -1.25669,6.65984 -1.57178,0.84271 -10.45001,0.95731 -15.22184,0.19646 l 0,0 z"
       id="path3109"
       inkscape:connector-curvature="0" />
    <path
       style="opacity:0.12595418;fill:#b3b3b3;fill-opacity:1;stroke:#000000;stroke-width:0.80149698;stroke-linejoin:miter;stroke-miterlimit:4;stroke-opacity:0;stroke-dasharray:3.20598801, 1.602994, 0.801497, 1.602994;stroke-dashoffset:0"
       d="m 21.711148,917.78904 c -9.12612,-2.61283 -17.6753679,-10.22056 -17.7184661,-15.76713 -0.00685,-0.93246 1.3381255,-4.36198 2.9897111,-7.62115 l 3.0028805,-5.92575 4.4983785,-0.23742 c 6.122589,-0.32315 12.832204,2.57851 14.76571,6.38562 0.747552,1.47195 1.478156,2.81129 1.62355,2.97628 0.145394,0.16501 1.561551,-0.46674 3.147006,-1.40388 1.585457,-0.93715 3.095573,-1.7039 3.355798,-1.7039 0.739497,0 -0.327889,13.60278 -1.40225,17.87033 -1.089202,4.32647 -3.845583,7.02972 -7.077921,6.94151 -1.151775,-0.0314 -4.384747,-0.71296 -7.184397,-1.51451 l 0,0 z"
       id="path3111"
       inkscape:connector-curvature="0" />
    <path
       style="opacity:0.12595418;fill:#b3b3b3;fill-opacity:1;stroke:#000000;stroke-width:0.80149698;stroke-linejoin:miter;stroke-miterlimit:4;stroke-opacity:0;stroke-dasharray:3.20598801, 1.602994, 0.801497, 1.602994;stroke-dashoffset:0"
       d="m 26.401035,918.45053 c -1.541484,-0.35173 -3.229844,-0.49161 -3.751914,-0.31085 -0.522079,0.18077 -1.062598,-0.002 -1.201155,-0.40486 -0.138565,-0.40343 -1.152794,-0.83441 -2.253854,-0.95771 -1.101052,-0.12331 -2.182088,-0.40674 -2.402299,-0.62987 -0.220213,-0.22312 -2.506884,-1.97567 -5.081499,-3.89457 -3.0678186,-2.28649 -5.1815486,-4.6087 -6.1331958,-6.73814 -1.6029351,-3.58678 -1.6073906,-3.55907 1.7931498,-11.16108 l 2.3943822,-5.35273 5.5173038,-0.26285 c 3.034523,-0.14458 5.516498,0.0465 5.515504,0.42463 -8.57e-4,0.37813 0.538711,0.47971 1.199346,0.22574 0.660636,-0.25397 1.201154,-0.18993 1.201154,0.14231 0,0.33225 1.068235,1.23625 2.373845,2.00891 1.305617,0.77265 2.991775,2.45279 3.74703,3.73365 1.344415,2.28006 1.43092,2.30467 4.130091,1.17483 4.286863,-1.79443 4.94043,-1.56639 4.1651,1.45322 -0.368194,1.43397 -0.909568,5.39608 -1.203064,8.80466 -0.814847,9.46338 -3.939713,13.1298 -10.009925,11.74471 z"
       id="path3113"
       inkscape:connector-curvature="0" />
    <path
       style="opacity:0.12595418;fill:#b3b3b3;fill-opacity:1;stroke:#000000;stroke-width:0.80149698;stroke-linejoin:miter;stroke-miterlimit:4;stroke-opacity:0;stroke-dasharray:3.20598801, 1.602994, 0.801497, 1.602994;stroke-dashoffset:0"
       d="m 21.59642,917.27058 c -7.320667,-1.96525 -16.8161468,-10.4908 -16.8161468,-15.09844 0,-0.93996 1.2471396,-4.31609 2.771427,-7.50252 l 2.7714188,-5.7935 4.235308,0.004 c 6.615921,0.007 9.792325,1.24417 13.225006,5.151 3.06416,3.48739 3.087817,3.49712 6.036546,2.48155 2.532194,-0.87211 3.107327,-0.84111 3.976651,0.21442 0.809551,0.98291 0.812671,1.30263 0.01534,1.57147 -0.550525,0.18563 -1.014203,1.48068 -1.030389,2.87789 -0.01619,1.39721 -0.513717,5.04897 -1.105601,8.11504 -1.710355,8.85986 -4.631178,10.51504 -14.079584,7.97862 z"
       id="path3115"
       inkscape:connector-curvature="0" />
    <path
       style="opacity:0.12595418;fill:#b3b3b3;fill-opacity:1;stroke:#000000;stroke-width:0.80149698;stroke-linejoin:miter;stroke-miterlimit:4;stroke-opacity:0;stroke-dasharray:3.20598801, 1.602994, 0.801497, 1.602994;stroke-dashoffset:0"
       d="M 20.553812,916.59789 C 16.545836,915.16567 11.819285,911.83357 8.369803,908.00845 4.4885936,903.7046 4.4726825,902.39258 8.2023027,894.19697 l 2.5070973,-5.50918 5.159769,0.5296 c 6.116196,0.62775 7.496744,1.25739 11.75767,5.36244 3.012615,2.9024 3.41072,3.05706 5.973477,2.32074 1.510159,-0.43388 3.005074,-0.52164 3.322038,-0.19499 0.316956,0.32666 0.260166,2.21842 -0.126201,4.20393 -0.386367,1.9855 -1.102517,5.66373 -1.591446,8.17383 -1.285842,6.60138 -3.179068,8.68172 -7.860833,8.63769 -2.060041,-0.0194 -5.115573,-0.52478 -6.790062,-1.12314 l 0,0 z"
       id="path3117"
       inkscape:connector-curvature="0" />
    <path
       style="opacity:0.12595418;fill:#b3b3b3;fill-opacity:1;stroke:#000000;stroke-width:0.80149698;stroke-linejoin:miter;stroke-miterlimit:4;stroke-opacity:0;stroke-dasharray:3.20598801, 1.602994, 0.801497, 1.602994;stroke-dashoffset:0"
       d="M 22.17558,916.64668 C 15.271569,914.7335 5.5810425,906.58236 5.5810425,902.68825 c 0,-0.58173 1.1393341,-3.94613 2.5318422,-7.47643 l 2.5318423,-6.41873 4.474885,0.55007 c 6.010096,0.73877 7.665358,1.44383 12.077,5.14418 3.304748,2.77194 4.112946,3.09549 6.686755,2.67707 2.68631,-0.43673 2.926092,-0.31851 2.908604,1.43401 -0.04147,4.15893 -3.01874,15.33767 -4.472888,16.79446 -2.078737,2.08252 -5.587708,2.51624 -10.143503,1.2538 z"
       id="path3119"
       inkscape:connector-curvature="0" />
    <path
       style="opacity:0.12595418;fill:#b3b3b3;fill-opacity:1;stroke:#000000;stroke-width:0.80149698;stroke-linejoin:miter;stroke-miterlimit:4;stroke-opacity:0;stroke-dasharray:3.20598801, 1.602994, 0.801497, 1.602994;stroke-dashoffset:0"
       d="M 15.076993,924.96088 C 4.0908309,923.10192 -5.6297194,914.592 -5.6297194,906.83309 c 0,-4.96877 4.76196375,-14.1177 8.9570614,-17.20876 4.3369105,-3.19555 13.739451,-7.79672 17.300234,-8.46595 4.025446,-0.75656 12.325059,1.76573 15.84738,4.81607 l 2.955944,2.55987 -1.323492,2.56399 c -0.727922,1.4102 -2.44053,3.1427 -3.8058,3.84999 -2.46782,1.27849 -2.495881,1.26951 -4.806784,-1.53912 -2.960613,-3.59827 -9.511922,-6.14492 -15.735941,-6.11695 l -4.5743788,0.0206 -3.0028805,6.68125 c -1.6515855,3.6747 -3.0028804,7.5823 -3.0028804,8.68356 0,3.83836 6.0657471,10.48482 12.5804097,13.78478 3.890137,1.97053 12.547944,3.75987 15.413878,3.18563 3.233092,-0.64779 4.637947,-2.82774 5.941466,-9.21954 l 1.041442,-5.10673 0.583308,4.01114 c 1.197991,8.2379 1.697682,7.41024 -7.331678,12.14371 -8.342247,4.37326 -9.551798,4.63133 -16.330576,3.48429 z"
       id="path3121"
       inkscape:connector-curvature="0" />
    <path
       style="opacity:0.12595418;fill:#b3b3b3;fill-opacity:1;stroke:#000000;stroke-width:0.80149698;stroke-linejoin:miter;stroke-miterlimit:4;stroke-opacity:0;stroke-dasharray:3.20598801, 1.602994, 0.801497, 1.602994;stroke-dashoffset:0"
       d="m 11.082469,923.7209 c -5.1518771,-1.58919 -11.0134951,-5.73093 -13.8368635,-9.77692 -3.0979786,-4.43953 -3.1524468,-9.35237 -0.1690765,-15.25047 3.31633243,-6.55638 6.4408648,-9.4953 14.268676,-13.42106 9.220585,-4.62423 13.86986,-4.88377 21.255173,-1.18656 6.577133,3.2926 7.309725,4.27172 5.262553,7.0334 -0.884343,1.19299 -2.549938,2.70463 -3.701319,3.3592 -1.984136,1.12801 -2.230918,1.05941 -4.726816,-1.31407 -4.115937,-3.91407 -7.640819,-5.32589 -14.283062,-5.72079 l -6.044301,-0.35936 -2.6075254,5.66738 c -4.558802,9.90845 -4.1933243,13.02975 2.2036193,18.81953 4.1804461,3.78365 9.7331541,6.56008 15.5114371,7.75594 8.300665,1.71788 11.067123,-0.0287 13.054832,-8.24181 0.58808,-2.42995 1.076494,-3.40867 1.174763,-2.3541 0.276351,2.96562 0.344863,3.25218 0.913793,3.82215 0.699827,0.7011 -0.03616,2.78032 -1.668079,4.71221 -0.703794,0.83317 -4.143338,2.90894 -7.643423,4.61279 -7.116117,3.46416 -12.128633,3.95117 -18.964381,1.84254 l 0,0 z"
       id="path3123"
       inkscape:connector-curvature="0" />
    <path
       style="opacity:0.12595418;fill:#b3b3b3;fill-opacity:1;stroke:#000000;stroke-width:0.80149698;stroke-linejoin:miter;stroke-miterlimit:4;stroke-opacity:0;stroke-dasharray:3.20598801, 1.602994, 0.801497, 1.602994;stroke-dashoffset:0"
       d="m 29.479941,893.04086 c -4.402491,-3.84245 -7.856266,-5.18196 -14.688458,-5.69672 l -6.407748,-0.48277 4.804616,-2.34165 c 7.096393,-3.4586 13.480432,-3.3813 20.177924,0.24432 6.647221,3.59843 6.832594,5.4664 0.918273,9.2533 -2.072139,1.32677 -2.194057,1.30199 -4.804607,-0.97648 z"
       id="path3125"
       inkscape:connector-curvature="0" />
    <path
       style="opacity:0.12595418;fill:#b3b3b3;fill-opacity:1;stroke:#000000;stroke-width:0.80149698;stroke-linejoin:miter;stroke-miterlimit:4;stroke-opacity:0;stroke-dasharray:3.20598801, 1.602994, 0.801497, 1.602994;stroke-dashoffset:0"
       d="m 29.604112,892.81624 c -3.918352,-3.20957 -9.851883,-5.5286 -14.166388,-5.53673 -2.286225,-0.004 -4.350422,-0.32174 -4.587094,-0.70537 -0.739729,-1.19909 8.253995,-4.11582 12.691068,-4.11582 4.589125,0 13.772173,3.90433 14.664939,6.23507 0.506879,1.32332 -3.851435,5.81225 -5.612283,5.78047 -0.543576,-0.01 -1.88919,-0.75575 -2.990242,-1.65762 z"
       id="path3127"
       inkscape:connector-curvature="0" />
    <path
       style="opacity:0.12595418;fill:#b3b3b3;fill-opacity:1;stroke:#000000;stroke-width:0.80149698;stroke-linejoin:miter;stroke-miterlimit:4;stroke-opacity:0;stroke-dasharray:3.20598801, 1.602994, 0.801497, 1.602994;stroke-dashoffset:0"
       d="m 28.018819,891.65021 c -4.895199,-3.12415 -8.584994,-4.36741 -12.98148,-4.37406 -4.167508,-0.006 -4.412113,-1.20976 -0.559762,-2.75398 7.210848,-2.89046 14.059106,-2.34027 20.131339,1.61735 3.628558,2.36494 3.838308,4.43807 0.677156,6.6931 -1.279151,0.91249 -2.450282,1.64984 -2.602505,1.63854 -0.152223,-0.0113 -2.251353,-1.28072 -4.664748,-2.82095 z"
       id="path3129"
       inkscape:connector-curvature="0" />
    <path
       style="opacity:0.12595418;fill:#b3b3b3;fill-opacity:1;stroke:#000000;stroke-width:0.80149698;stroke-linejoin:miter;stroke-miterlimit:4;stroke-opacity:0;stroke-dasharray:3.20598801, 1.602994, 0.801497, 1.602994;stroke-dashoffset:0"
       d="m 25.744855,890.39685 c -4.238616,-2.26004 -6.830256,-3.12518 -9.361773,-3.12518 -4.644141,0 -5.132444,-1.13499 -1.171413,-2.72277 6.385847,-2.55976 15.758244,-1.30628 20.240695,2.70702 l 2.559817,2.29189 -1.941312,2.07084 c -1.067729,1.13894 -2.509111,2.03315 -3.203077,1.9871 -0.693966,-0.046 -3.899288,-1.49006 -7.122937,-3.2089 z"
       id="path3131"
       inkscape:connector-curvature="0" />
    <path
       style="opacity:0.12595418;fill:#b3b3b3;fill-opacity:1;stroke:#000000;stroke-width:0.80149698;stroke-linejoin:miter;stroke-miterlimit:4;stroke-opacity:0;stroke-dasharray:3.20598801, 1.602994, 0.801497, 1.602994;stroke-dashoffset:0"
       d="m 10.668307,923.37129 c -5.292662,-1.7326 -12.2065011,-7.18243 -14.329391,-11.2951 -2.6465959,-5.12728 -0.1880727,-14.17777 5.4118122,-19.92235 2.8786757,-2.95306 6.0991206,-5.28332 6.603395,-4.77814 0.1764283,0.17676 -0.7257031,2.66241 -2.0047507,5.52369 -4.3435425,9.71671 -4.0015675,12.77956 2.050942,18.36871 6.1825745,5.70927 16.8809735,9.67548 23.0215635,8.53478 2.10709,-0.39143 1.733336,-0.0286 -2.016565,1.95751 -6.158739,3.26196 -12.126225,3.775 -18.737006,1.6109 l 0,0 z"
       id="path3133"
       inkscape:connector-curvature="0" />
    <path
       style="opacity:0.12595418;fill:#b3b3b3;fill-opacity:1;stroke:#000000;stroke-width:0.80149698;stroke-linejoin:miter;stroke-miterlimit:4;stroke-opacity:0;stroke-dasharray:3.20598801, 1.602994, 0.801497, 1.602994;stroke-dashoffset:0"
       d="m 9.9852735,922.85959 c -5.4035604,-2.24322 -11.2852967,-7.13133 -13.1001244,-10.88709 -1.8850865,-3.90115 -1.6750199,-7.4675 0.7807972,-13.25616 1.41338024,-3.33152 7.9117974,-10.64244 9.4596817,-10.64244 0.4322756,0 -0.1831372,2.43675 -1.367583,5.41502 -1.2561106,3.15846 -2.1567682,6.98653 -2.1612837,9.18614 -0.00685,3.22124 0.4001962,4.19747 2.7899943,6.69495 5.9037134,6.16976 15.2851244,10.74751 22.1911314,10.82838 l 3.028149,0.0355 -3.203078,1.70343 c -4.33272,2.30419 -13.93107,2.78485 -18.4176845,0.92231 l 0,0 z"
       id="path3135"
       inkscape:connector-curvature="0" />
    <path
       style="opacity:0.12595418;fill:#b3b3b3;fill-opacity:1;stroke:#000000;stroke-width:0.80149698;stroke-linejoin:miter;stroke-miterlimit:4;stroke-opacity:0;stroke-dasharray:3.20598801, 1.602994, 0.801497, 1.602994;stroke-dashoffset:0"
       d="m 10.641146,922.68545 c -4.7003494,-1.6272 -10.90651288,-6.3783 -13.1532479,-10.06943 -3.3958874,-5.57907 -0.8285645,-14.69704 5.9972963,-21.2997 2.0335657,-1.96707 3.6973866,-3.2318 3.6973866,-2.81052 0,0.42128 -0.9371754,3.58518 -2.0826187,7.0309 -2.7322875,8.21923 -2.3057011,10.46038 2.9238214,15.36089 4.7221213,4.42503 12.2201583,8.1453 18.3772513,9.11815 l 4.404231,0.6959 -2.402308,0.98664 c -2.72712,1.12005 -9.387913,2.48878 -11.920638,2.44959 -0.930836,-0.0144 -3.55937,-0.67249 -5.841174,-1.46242 l 0,0 z"
       id="path3137"
       inkscape:connector-curvature="0" />
  </g>
</svg>
